# Blender 5.1.2
# www.blender.org
mtllib tray.mtl
o dice_tray_hex_v1
v 3.153875 0.068085 0.964435
v 2.900005 0.048047 1.388833
v 2.659400 0.068085 1.820891
v 2.412162 0.068085 2.249118
v 1.924368 0.105053 3.124574
v 2.164925 0.068085 2.677346
v 3.401112 0.068085 0.536207
v 2.933168 0.148236 1.407980
v 3.631619 0.038438 -0.098320
v 3.681959 0.159294 -0.107040
v 3.709955 0.200000 0.000000
v 3.683824 0.174118 0.108136
v 3.666998 0.065319 -0.034506
v 3.641652 0.036461 0.067333
v 2.900004 0.048047 -1.388833
v 3.153875 0.068085 -0.964435
v 3.427643 0.148236 -0.551524
v 2.933168 0.148236 -1.407980
v 2.659400 0.068085 -1.820891
v 2.405529 0.048047 -2.245289
v 2.164925 0.068085 -2.677346
v 2.438693 0.148236 -2.264436
v 1.947169 0.200000 -3.122595
v 3.394480 0.048047 -0.532377
v 1.764801 0.026499 -3.179119
v 1.762562 0.159294 -3.240037
v 1.888987 0.144813 -3.175223
v 1.871229 0.027929 -3.123980
v -0.247237 0.048047 -3.205894
v 0.247237 0.048047 -3.205894
v 1.236187 0.148236 -3.244188
v 0.741713 0.148236 -3.244188
v 0.247237 0.148236 -3.244188
v -0.741713 0.048047 -3.205894
v -1.236187 0.048047 -3.205894
v -0.247237 0.148236 -3.244188
v -0.741713 0.148236 -3.244188
v -1.236187 0.148236 -3.244188
v -1.743657 0.162059 -3.242028
v 0.741713 0.048047 -3.205894
v 1.236187 0.048047 -3.205894
v -1.849311 0.008983 -3.118219
v -1.919581 0.118866 -3.135186
v -1.854978 0.200000 -3.212915
v -1.790439 0.057800 -3.192353
v -2.900004 0.048047 -1.388833
v -2.659400 0.068085 -1.820891
v -2.412162 0.068085 -2.249118
v -3.153875 0.068085 -0.964435
v -3.394480 0.048047 -0.532377
v -2.933168 0.148236 -1.407980
v -3.427643 0.148236 -0.551524
v -2.164925 0.068085 -2.677346
v -3.657061 0.071745 0.074512
v -3.703248 0.149412 -0.017920
v -3.669244 0.115603 -0.106624
v -3.628653 0.013943 -0.049761
v -2.906637 0.068085 1.392663
v -3.153875 0.068085 0.964435
v -3.409789 0.083402 0.541216
v -2.659400 0.068085 1.820891
v -2.412162 0.068085 2.249118
v -2.164925 0.068085 2.677346
v -3.366405 0.006815 0.516169
v -1.784513 0.074202 3.196813
v -1.877895 0.150000 3.191214
v -1.919581 0.118866 3.135186
v -1.862633 0.007873 3.104408
v -0.247237 0.068085 3.213553
v -0.741713 0.068085 3.213553
v 0.247237 0.068085 3.213553
v 0.741713 0.068085 3.213553
v 1.236187 0.068085 3.213553
v -1.236187 0.068085 3.213553
v 1.856857 0.006737 3.103140
v 1.916449 0.200000 3.164878
v 1.851446 0.099548 3.184461
v 1.762763 0.072889 3.203906
v 1.759530 0.200000 3.047595
v 3.519060 0.200000 0.000000
v 1.759530 0.200000 -3.047595
v -1.759530 0.200000 -3.047595
v -1.756739 1.573296 -3.233183
v -1.839873 1.689286 -3.119202
v -1.748792 1.690389 -3.167501
v -1.850544 1.576372 -3.200793
v -1.919581 1.581134 -3.135186
v 1.880216 1.591796 -3.165316
v 1.771708 1.694214 -3.144014
v 1.876313 1.685848 -3.093175
v 1.755974 1.593278 -3.225564
v 3.629914 1.686525 -0.069586
v 3.678240 1.573814 0.096714
v 3.637852 1.679865 0.065922
v 3.697253 1.573296 -0.007301
v 3.667384 1.597655 -0.099592
v 1.801596 1.689191 3.143316
v 1.876887 1.691598 3.082267
v 1.925941 1.573296 3.132985
v 1.854778 1.573296 3.199492
v 1.753842 1.584397 3.229229
v -1.293605 1.680200 3.123453
v -1.767950 1.584035 3.062179
v -1.293605 1.575882 3.055998
v -0.258721 1.616598 3.071619
v 1.293605 1.695457 3.147595
v -1.293605 1.616598 3.223572
v -1.730662 1.593278 3.228376
v 0.258721 1.616598 3.223572
v -0.258721 1.616598 3.223572
v 1.293605 1.616598 3.223572
v 0.776163 1.616598 3.071619
v 0.258721 1.575882 3.055998
v 1.293605 1.616598 3.071619
v 1.767950 1.584035 3.062179
v -0.776163 1.680200 3.123453
v -0.776163 1.575882 3.055998
v -0.258721 1.695457 3.147595
v 0.258721 1.680199 3.123453
v 0.776163 1.695457 3.147595
v -0.776163 1.616598 3.223572
v 0.776163 1.616598 3.223572
v -1.801596 1.689191 3.143316
v -1.867894 1.697729 3.077157
v -1.923488 1.584397 3.129052
v -1.830790 1.573296 3.209759
v -3.361493 1.696593 0.447032
v -3.306903 1.616598 0.415514
v -3.535899 1.584035 -0.000000
v -2.789461 1.616598 1.311750
v -2.530740 1.616598 1.759868
v -2.280695 1.631915 2.212996
v -2.079095 1.700000 2.694093
v -3.429821 1.631915 0.486482
v -2.912379 1.631915 1.382717
v -2.136216 1.631915 2.727072
v -2.021974 1.631915 2.661114
v -3.125186 1.696593 0.908091
v -3.056858 1.631915 0.868642
v -2.844051 1.696593 1.343268
v -2.349023 1.696593 2.252445
v -2.585330 1.696593 1.791386
v -2.653658 1.631915 1.830835
v -3.179776 1.616598 0.939609
v -2.403614 1.616598 2.283963
v -3.629131 1.683319 0.023736
v -3.683907 1.573666 0.074456
v -3.604105 1.696593 -0.078332
v -3.658233 1.611574 -0.108499
v -3.693462 1.550588 -0.070093
v -2.079095 1.700000 -2.694093
v -2.021974 1.631915 -2.661114
v -1.767950 1.584035 -3.062179
v -2.530740 1.616598 -1.759869
v -2.789460 1.616598 -1.311750
v -3.056858 1.631915 -0.868642
v -3.350286 1.693185 -0.440562
v -2.136216 1.631915 -2.727072
v -2.653658 1.631915 -1.830835
v -3.420301 1.643263 -0.480985
v -3.306903 1.616598 -0.415514
v -2.349023 1.696593 -2.252445
v -2.280695 1.631915 -2.212996
v -2.585330 1.696593 -1.791386
v -2.844051 1.696593 -1.343268
v -3.125186 1.696593 -0.908091
v -2.912379 1.631915 -1.382717
v -2.403614 1.616598 -2.283963
v -3.179777 1.616598 -0.939609
v 1.293605 1.695457 -3.147595
v 1.293605 1.616598 -3.071619
v 1.767950 1.584035 -3.062179
v 0.258721 1.616598 -3.071619
v -0.258721 1.616598 -3.071619
v -1.293605 1.695457 -3.147595
v 1.293605 1.616598 -3.223572
v -0.258721 1.616598 -3.223572
v 0.258721 1.616598 -3.223572
v -1.293605 1.616598 -3.223572
v -0.776163 1.616598 -3.071619
v -1.293605 1.616598 -3.071619
v 0.776163 1.695457 -3.147595
v 0.776163 1.616598 -3.071619
v 0.258721 1.695457 -3.147595
v -0.258721 1.695457 -3.147595
v -0.776163 1.695457 -3.147595
v 0.776163 1.616598 -3.223572
v -0.776163 1.616598 -3.223572
v 3.361493 1.696593 -0.447032
v 3.583883 1.658446 -0.000000
v 3.306903 1.616598 -0.415514
v 2.789461 1.616598 -1.311750
v 2.530740 1.616598 -1.759868
v 2.280695 1.631915 -2.212996
v 2.079095 1.700000 -2.694093
v 3.429821 1.631915 -0.486482
v 2.912379 1.631915 -1.382717
v 2.136216 1.631915 -2.727072
v 2.021974 1.631915 -2.661114
v 3.125186 1.696593 -0.908091
v 3.056858 1.631915 -0.868642
v 2.844051 1.696593 -1.343268
v 2.585330 1.696593 -1.791386
v 2.349023 1.696593 -2.252445
v 2.653658 1.631915 -1.830835
v 3.179776 1.616598 -0.939609
v 2.403614 1.616598 -2.283963
v 2.653658 1.631915 1.830835
v 2.119485 1.661562 2.717412
v 2.021974 1.631915 2.661114
v 2.530740 1.616598 1.759869
v 2.798137 1.631915 1.316760
v 3.056858 1.631915 0.868642
v 3.361493 1.696593 0.447032
v 3.429821 1.631915 0.486481
v 3.306903 1.616598 0.415514
v 2.403614 1.616598 2.283963
v 2.162746 1.551764 2.742389
v 3.179776 1.616598 0.939609
v 3.125186 1.696593 0.908091
v 2.912379 1.631915 1.382717
v 2.349023 1.696593 2.252445
v 2.855258 1.700000 1.349739
v 2.585330 1.696593 1.791386
v 2.280695 1.631915 2.212996
v -1.759530 0.200000 3.047595
v -3.519060 0.200000 0.000000
vn 0.8003 -0.3821 0.4621
vn 0.6677 -0.6369 0.3855
vn 0.7543 -0.4981 0.4277
vn -0.8673 0.1000 -0.4876
vn 0.6506 -0.6600 0.3756
vn 0.6551 -0.6537 0.3788
vn 0.7007 -0.5736 0.4243
vn 0.8090 -0.3570 0.4670
vn 0.8089 -0.3570 0.4670
vn 0.8081 -0.3604 0.4659
vn 0.8212 -0.3270 0.4677
vn -0.4447 0.8630 -0.2396
vn 0.8316 -0.2789 0.4802
vn 0.8123 -0.3800 0.4424
vn 0.8666 -0.3840 -0.3187
vn 0.9526 -0.2659 -0.1480
vn 0.9313 -0.3342 0.1451
vn 0.9344 -0.3277 0.1397
vn 0.7264 -0.5367 -0.4294
vn -0.8043 -0.3266 0.4965
vn 0.8089 -0.3570 -0.4670
vn 0.8146 -0.3570 -0.4572
vn -0.7904 0.4244 0.4417
vn 0.8173 -0.3368 -0.4675
vn -0.8036 0.3786 0.4593
vn 0.8090 -0.3570 -0.4670
vn -0.7532 0.4703 0.4598
vn 0.8338 -0.2670 -0.4833
vn 0.7998 -0.3387 -0.4955
vn 0.8223 -0.2917 -0.4886
vn 0.7904 -0.3623 -0.4939
vn 0.8116 -0.3706 -0.4516
vn 0.7605 -0.4725 -0.4454
vn 0.7777 -0.4449 -0.4442
vn 0.5594 -0.7634 -0.3228
vn -0.8227 -0.3581 0.4415
vn 0.3757 -0.4194 -0.8264
vn 0.4312 -0.3702 -0.8228
vn -0.0000 -0.8115 0.5844
vn -0.0000 -0.8114 0.5845
vn -0.0000 -0.3570 -0.9341
vn 0.0149 -0.3570 -0.9340
vn -0.0000 0.3514 -0.9362
vn -0.0000 0.1544 -0.9880
vn 0.0007 0.2316 -0.9728
vn -0.0295 -0.4191 -0.9075
vn -0.0137 -0.3570 -0.9340
vn -0.0000 0.1543 -0.9880
vn 0.0291 -0.4164 -0.9087
vn -0.0000 -0.7791 -0.6270
vn -0.0069 -0.9324 -0.3613
vn -0.0000 -0.7790 -0.6270
vn -0.5117 -0.3460 -0.7864
vn -0.3312 -0.2806 -0.9009
vn -0.5308 -0.4503 -0.7180
vn -0.3133 -0.9244 -0.2173
vn -0.7313 -0.5437 -0.4118
vn -0.8239 -0.3081 -0.4757
vn -0.7509 -0.5244 -0.4014
vn -0.8089 -0.3570 -0.4670
vn -0.8109 -0.3488 -0.4699
vn -0.8102 -0.3541 -0.4671
vn 0.7934 0.4000 0.4588
vn -0.8096 -0.3570 -0.4659
vn 0.8077 0.3623 0.4652
vn 0.7784 -0.4742 0.4115
vn -0.6453 -0.6669 -0.3726
vn -0.6506 -0.6596 -0.3762
vn -0.7215 -0.5302 -0.4454
vn -0.8797 -0.4450 -0.1676
vn -0.8730 -0.4870 0.0270
vn -0.6757 -0.6254 0.3901
vn -0.6758 -0.6254 0.3901
vn 0.5964 0.7298 -0.3342
vn -0.3205 0.9290 0.1850
vn -0.7372 -0.5033 0.4509
vn -0.8239 -0.3081 0.4757
vn -0.8549 -0.1757 0.4880
vn -0.5881 -0.7371 0.3328
vn -0.7338 -0.5473 0.4025
vn -0.7248 -0.5474 0.4184
vn 0.7587 0.4920 -0.4270
vn -0.4902 -0.5542 0.6727
vn -0.4899 -0.4572 0.7423
vn -0.0000 -0.8951 -0.4458
vn -0.0000 0.9393 0.3432
vn -0.0000 0.9392 0.3433
vn -0.0004 0.9209 0.3897
vn -0.0000 -0.8952 -0.4458
vn 0.0004 -0.9266 -0.3761
vn 0.6244 -0.2605 0.7364
vn 0.5632 -0.5257 0.6375
vn 0.3401 -0.6084 0.7170
vn -0.7406 0.0046 -0.6720
vn -0.9346 -0.0067 -0.3557
vn -0.9979 0.0094 0.0645
vn -0.8998 -0.0161 0.4361
vn -0.8694 -0.0155 0.4938
vn -0.8664 -0.0002 0.4993
vn -0.8024 0.0004 0.5968
vn -0.6558 0.0119 0.7549
vn -0.0685 -0.0107 0.9976
vn -0.1801 -0.0141 0.9836
vn -0.0020 -0.0207 0.9998
vn -0.0003 -0.0168 0.9999
vn 0.2185 -0.0151 0.9757
vn 0.2815 -0.0104 0.9595
vn 0.3031 -0.0104 0.9529
vn 0.6828 0.0122 0.7305
vn 0.9802 -0.0022 0.1978
vn 0.8638 -0.0038 0.5038
vn 0.8661 0.0075 0.4998
vn -0.0003 -1.0000 -0.0100
vn -0.0049 -0.9998 -0.0182
vn -0.0048 -0.9999 -0.0116
vn 0.0059 -0.9062 0.4228
vn 0.0034 -1.0000 0.0015
vn 0.0051 -1.0000 0.0046
vn 0.0051 -0.9999 0.0161
vn -0.0053 -0.8332 -0.5529
vn -0.0014 -0.8366 0.5479
vn -0.0000 -0.8124 0.5832
vn 0.6586 -0.7509 -0.0488
vn -0.8602 0.0106 -0.5099
vn -0.8654 0.0385 -0.4996
vn -0.8599 0.0382 0.5090
vn -0.8660 0.0105 0.5000
vn -0.0000 0.0105 0.9999
vn -0.2481 0.5827 -0.7739
vn -0.4190 0.4657 -0.7795
vn -0.5713 0.5155 -0.6386
vn 0.3702 0.5482 -0.7499
vn 0.3958 0.5692 -0.7207
vn 0.8854 0.4316 -0.1726
vn -0.4405 0.8950 0.0698
vn 0.8654 0.5003 -0.0261
vn 0.9052 0.3922 0.1635
vn 0.5318 0.5103 0.6759
vn 0.2933 0.5226 0.8005
vn 0.5679 0.5552 0.6077
vn -0.0203 0.6067 -0.7947
vn -0.0016 0.5430 -0.8397
vn -0.0000 -0.6042 0.7969
vn 0.0026 -0.3865 0.9223
vn 0.0174 0.5429 -0.8396
vn -0.0174 0.5429 -0.8396
vn -0.0000 0.6938 -0.7201
vn 0.0025 0.6938 -0.7201
vn 0.0359 0.8435 0.5359
vn -0.0265 0.6522 0.7575
vn 0.0002 0.1874 0.9823
vn -0.0000 0.2018 0.9794
vn -0.0000 0.1730 0.9849
vn -0.0000 0.8441 0.5362
vn 0.0397 0.6933 0.7196
vn 0.0143 0.6300 0.7764
vn 0.0257 0.6055 -0.7954
vn -0.0015 0.3416 -0.9398
vn 0.0013 -0.3729 0.9279
vn -0.0000 0.2784 -0.9605
vn -0.0000 0.5430 -0.8397
vn 0.0131 0.6938 -0.7201
vn -0.0540 0.6928 0.7191
vn -0.0000 0.6938 0.7201
vn 0.0498 0.8430 0.5355
vn -0.0131 0.6938 -0.7201
vn -0.0000 0.1731 0.9849
vn -0.5505 0.5554 0.6233
vn -0.2560 0.5285 0.8094
vn -0.5251 0.5190 0.6745
vn -0.5465 0.7734 0.3213
vn 0.6555 0.6182 -0.4338
vn 0.6206 0.6773 -0.3951
vn 0.8753 0.0138 -0.4834
vn 0.7724 0.4476 -0.4506
vn 0.6184 0.6958 -0.3653
vn 0.2610 0.9554 -0.1382
vn -0.7443 0.5482 0.3815
vn -0.8340 0.2728 0.4797
vn -0.5485 -0.7560 0.3571
vn -0.8289 0.3069 0.4678
vn -0.7955 0.3866 0.4667
vn -0.2532 -0.9614 0.1073
vn -0.7096 0.5498 0.4405
vn -0.6273 0.6958 0.3500
vn 0.7362 0.5451 -0.4012
vn 0.8318 0.2785 -0.4802
vn -0.5821 -0.7357 0.3461
vn 0.8023 0.3765 -0.4632
vn -0.5646 0.7730 0.2894
vn 0.5646 0.7730 -0.2894
vn 0.6787 0.6189 -0.3954
vn -0.5329 0.7730 0.3443
vn 0.5329 0.7730 -0.3443
vn 0.6818 0.6189 -0.3900
vn -0.6787 0.6189 0.3954
vn -0.6818 0.6189 0.3900
vn -0.5490 0.7734 0.3170
vn 0.6802 0.6189 -0.3927
vn -0.6153 0.6957 0.3707
vn 0.5384 0.7732 -0.3351
vn 0.6220 0.6958 -0.3591
vn -0.8167 0.3327 0.4715
vn -0.8158 0.5643 -0.1266
vn -0.8805 0.4701 -0.0612
vn -0.8966 0.4426 -0.0114
vn -0.6183 0.6958 -0.3655
vn 0.6334 0.6956 0.3389
vn 0.6745 0.6503 0.3496
vn 0.8023 0.3765 0.4632
vn 0.7764 0.4476 0.4436
vn 0.7248 0.5474 0.4184
vn 0.7123 0.5472 0.4394
vn -0.4582 0.8508 -0.2571
vn 0.7516 0.6050 0.2629
vn -0.6913 0.5743 -0.4384
vn -0.8172 0.3297 -0.4727
vn -0.4149 -0.8878 -0.1989
vn -0.8022 0.3665 -0.4714
vn -0.7137 0.5697 -0.4074
vn 0.6633 -0.6459 0.3780
vn -0.7029 0.5890 -0.3989
vn 0.7064 0.5598 0.4332
vn 0.8318 0.2785 0.4802
vn -0.5908 -0.7357 -0.3311
vn 0.8753 0.0138 0.4834
vn -0.6153 0.6957 -0.3707
vn 0.6106 0.6956 0.3785
vn 0.5490 0.7734 0.3170
vn -0.5646 0.7730 -0.2894
vn 0.5646 0.7730 0.2894
vn 0.6787 0.6189 0.3954
vn -0.6818 0.6189 -0.3900
vn -0.6787 0.6189 -0.3954
vn -0.6802 0.6189 -0.3927
vn -0.5490 0.7734 -0.3170
vn 0.6802 0.6189 0.3927
vn -0.5329 0.7730 -0.3443
vn 0.5329 0.7730 0.3443
vn 0.6818 0.6189 0.3900
vn 0.4793 0.7668 0.4269
vn -0.3805 0.8425 -0.3814
vn -0.7946 0.3978 -0.4587
vn -0.0036 0.6938 0.7201
vn 0.0249 0.5955 0.8029
vn -0.0000 0.2784 0.9605
vn -0.0000 0.2785 0.9605
vn 0.0296 0.6935 0.7198
vn -0.0112 0.9999 0.0017
vn 0.0072 0.6938 -0.7201
vn 0.0282 0.6255 -0.7797
vn 0.0012 0.1624 -0.9867
vn -0.0000 0.0851 -0.9964
vn -0.0000 0.2167 -0.9762
vn -0.0278 0.4905 -0.8710
vn 0.0238 0.6936 -0.7199
vn -0.0146 0.4686 0.8833
vn -0.0000 0.2785 0.9604
vn -0.4226 0.9024 0.0846
vn 0.5954 0.7696 -0.2305
vn -0.6809 0.6189 0.3915
vn 0.6959 -0.5937 -0.4041
vn -0.6975 -0.5653 0.4404
vn -0.5978 0.6950 0.3995
vn 0.1274 0.9868 -0.0997
vn 0.7700 0.4702 -0.4312
vn 0.8523 0.1626 -0.4972
vn -0.4496 -0.8599 0.2416
vn 0.7950 0.4042 -0.4524
vn 0.8509 0.1303 -0.5090
vn -0.1327 -0.9854 0.1066
vn 0.7722 0.4066 -0.4883
vn 0.6301 0.6957 -0.3449
vn -0.8035 0.3724 0.4645
vn 0.6870 -0.6088 -0.3967
vn 0.7088 -0.5736 -0.4105
vn -0.8023 0.3765 0.4632
vn -0.8290 0.2788 0.4848
vn 0.5490 0.7734 -0.3170
vn -0.6802 0.6189 0.3927
vn 0.6153 0.6957 -0.3707
vn -0.5384 0.7732 0.3351
vn -0.6220 0.6958 0.3591
vn 0.8642 -0.0642 -0.4990
vn 0.8056 0.3768 0.4573
vn 0.7155 -0.5342 0.4502
vn -0.2046 0.9550 -0.2146
vn -0.1796 0.9639 -0.1966
vn -0.7362 0.5451 -0.4012
vn -0.8023 0.3765 -0.4632
vn -0.7764 0.4476 -0.4436
vn -0.6809 0.6189 -0.3915
vn 0.7896 0.4283 0.4394
vn 0.5294 0.7728 0.3500
vn -0.1765 0.9694 -0.1705
vn 0.4597 -0.8527 0.2480
vn 0.6959 -0.5937 0.4041
vn 0.4046 -0.8881 0.2183
vn 0.8178 0.3291 0.4721
vn 0.7396 0.4999 0.4506
vn 0.7725 -0.4850 0.4099
vn 0.8168 0.3326 0.4714
vn 0.7883 0.4141 0.4551
vn 0.7804 0.4141 0.4686
vn -0.8139 -0.3348 -0.4750
vn 0.6848 0.6189 0.3847
vn 0.6153 0.6957 0.3707
vn -0.6106 0.6956 -0.3785
vn -0.2607 0.9638 -0.0561
vn 0.0006 0.0101 -0.9999
vn 0.0021 0.0063 -1.0000
vn 0.6660 0.0091 -0.7459
vn 0.4570 0.0089 -0.8894
vn 0.4364 0.0111 -0.8997
vn 0.8668 0.0114 -0.4985
vn 0.8636 0.0261 -0.5035
vn 0.9717 0.0058 0.2362
vn 0.9837 0.0101 0.1797
vn 0.9667 0.0076 -0.2557
vn 0.9522 0.0112 -0.3052
vn -0.2518 0.0037 -0.9678
vn -0.3261 0.0094 -0.9453
vn -0.7732 0.0081 -0.6342
vn -0.6889 -0.0000 -0.7249
vn -0.8659 -0.0000 -0.5002
vn -0.8671 0.0058 -0.4981
vn -0.0000 1.0000 -0.0000
vn 0.8660 0.0105 0.5000
vn 0.8660 0.0105 -0.5000
vn -0.0000 0.0105 -0.9999
vt 0.576745 0.876564
vt 0.573959 0.842323
vt 0.573679 0.809073
vt 0.573398 0.775823
vt 0.570127 0.640478
vt 0.572555 0.676073
vt 0.572836 0.709323
vt 0.571763 0.742518
vt 0.370529 0.852408
vt 0.371358 0.830492
vt 0.371358 0.919236
vt 0.570127 0.877055
vt 0.578532 0.742789
vt 0.579434 0.641844
vt 0.943141 0.584841
vt 0.943591 0.484348
vt 0.943591 0.718240
vt 0.572041 0.633438
vt 0.570230 0.630400
vt 0.578381 0.628469
vt 0.581143 0.634392
vt 0.926900 0.838093
vt 0.928211 0.873857
vt 0.926900 0.907315
vt 0.204126 0.877469
vt 0.203653 0.809096
vt 0.204126 0.776151
vt 0.570956 0.609552
vt 0.572391 0.588915
vt 0.577716 0.607433
vt 0.378596 0.830492
vt 0.381001 0.864624
vt 0.378596 0.897640
vt 0.876389 0.395555
vt 0.870431 0.355997
vt 0.875940 0.334093
vt 0.869178 0.336207
vt 0.870630 0.315571
vt 0.408191 0.857224
vt 0.404279 0.890096
vt 0.404279 0.757072
vt 0.375364 0.803660
vt 0.374937 0.782977
vt 0.381906 0.800941
vt 0.378409 0.823255
vt 0.132638 0.875973
vt 0.130213 0.842256
vt 0.132638 0.776152
vt 0.572558 0.548489
vt 0.581720 0.485944
vt 0.370529 0.763177
vt 0.378057 0.758756
vt 0.381906 0.760139
vt 0.868237 0.255026
vt 0.868237 0.397481
vt 0.306969 0.448078
vt 0.219811 0.497317
vt 0.423952 0.378903
vt 0.355755 0.867882
vt 0.356108 0.901006
vt 0.355755 0.934155
vt 0.218784 0.510819
vt 0.226434 0.512056
vt 0.218086 0.519379
vt 0.226769 0.519264
vt 0.426636 0.760951
vt 0.427283 0.798521
vt 0.427067 0.832021
vt 0.426852 0.865520
vt 0.225311 0.555079
vt 0.225190 0.588586
vt 0.218723 0.555051
vt 0.218602 0.588559
vt 0.218480 0.622066
vt 0.225068 0.622094
vt 0.224946 0.655602
vt 0.224824 0.689110
vt 0.218358 0.655574
vt 0.224702 0.722618
vt 0.218236 0.689082
vt 0.217044 0.756975
vt 0.223841 0.760175
vt 0.218114 0.722590
vt 0.426636 0.899020
vt 0.429639 0.268900
vt 0.429628 0.302385
vt 0.427666 0.371713
vt 0.428829 0.130886
vt 0.429618 0.335869
vt 0.219406 0.768914
vt 0.214312 0.764511
vt 0.226769 0.764181
vt 0.393914 0.862582
vt 0.392111 0.826203
vt 0.392391 0.792672
vt 0.393914 0.759334
vt 0.900084 0.255026
vt 0.903031 0.278526
vt 0.902582 0.300016
vt 0.902133 0.321507
vt 0.389143 0.860099
vt 0.903031 0.343428
vt 0.901234 0.364488
vt 0.896294 0.341277
vt 0.897130 0.406993
vt 0.917538 0.584994
vt 0.919662 0.484348
vt 0.919662 0.719541
vt 0.860242 0.456692
vt 0.854400 0.477054
vt 0.853599 0.454267
vt 0.860242 0.434753
vt 0.872095 0.471937
vt 0.868237 0.438713
vt 0.872095 0.404718
vt 0.344000 0.801169
vt 0.344458 0.767830
vt 0.344458 0.903996
vt 0.336365 0.071668
vt 0.365257 0.088519
vt 0.423524 0.127004
vt 0.216535 0.005720
vt 0.394148 0.105370
vt 0.425353 0.121972
vt 0.339350 0.511717
vt 0.341637 0.506866
vt 0.348518 0.511439
vt 0.344602 0.518681
vt 0.348518 0.753289
vt 0.344504 0.719067
vt 0.344561 0.686058
vt 0.344618 0.653049
vt 0.418422 0.760951
vt 0.419399 0.796621
vt 0.418744 0.830140
vt 0.418583 0.863602
vt 0.341005 0.753911
vt 0.418422 0.897063
vt 0.344676 0.620041
vt 0.119522 0.054110
vt 0.208509 0.003619
vt 0.003619 0.124525
vt 0.180539 0.809012
vt 0.180539 0.844479
vt 0.175372 0.809713
vt 0.178773 0.776151
vt 0.887943 0.475730
vt 0.883626 0.453423
vt 0.887943 0.433441
vt 0.805998 0.735736
vt 0.810829 0.742026
vt 0.807754 0.744784
vt 0.799950 0.740924
vt 0.418422 0.747000
vt 0.418593 0.711346
vt 0.419394 0.677871
vt 0.420195 0.644396
vt 0.928003 0.722990
vt 0.926900 0.686130
vt 0.926968 0.652865
vt 0.927036 0.619599
vt 0.927104 0.586333
vt 0.928003 0.484348
vt 0.420995 0.610921
vt 0.424652 0.506866
vt 0.583193 0.879242
vt 0.576439 0.882228
vt 0.806757 0.484348
vt 0.807514 0.489375
vt 0.799950 0.488929
vt 0.806138 0.495420
vt 0.122976 0.776152
vt 0.122976 0.877264
vt 0.120615 0.780107
vt 0.244399 0.508497
vt 0.242829 0.517917
vt 0.241695 0.753298
vt 0.338886 0.758445
vt 0.242428 0.760593
vt 0.903895 0.738329
vt 0.905547 0.731564
vt 0.905076 0.495495
vt 0.903800 0.488619
vt 0.813694 0.484906
vt 0.676302 0.882343
vt 0.676234 0.876315
vt 0.674279 0.640580
vt 0.003619 0.376402
vt 0.208620 0.497960
vt 0.424652 0.753713
vt 0.215671 0.499629
vt 0.695513 0.879274
vt 0.691512 0.726637
vt 0.789309 0.879051
vt 0.790363 0.726077
vt 0.698934 0.489540
vt 0.792713 0.491173
vt 0.802636 0.996381
vt 0.805682 0.756845
vt 0.892532 0.996381
vt 0.895564 0.757986
vt 0.121221 0.763865
vt 0.113199 0.763119
vt 0.121608 0.757507
vt 0.113379 0.756943
vt 0.120566 0.768546
vt 0.121086 0.519465
vt 0.113875 0.518379
vt 0.120927 0.511050
vt 0.114222 0.511296
vt 0.675857 0.628600
vt 0.681914 0.631417
vt 0.674206 0.633586
vt 0.437381 0.692621
vt 0.440694 0.697502
vt 0.436876 0.701791
vt 0.681488 0.639670
vt 0.684275 0.874384
vt 0.684181 0.880181
vt 0.910300 0.492100
vt 0.854043 0.247789
vt 0.854746 0.213363
vt 0.861541 0.245503
vt 0.862122 0.213358
vt 0.142031 0.878427
vt 0.140663 0.846307
vt 0.139875 0.811260
vt 0.142031 0.776152
vt 0.862122 0.108165
vt 0.859295 0.143230
vt 0.854746 0.108170
vt 0.859295 0.073102
vt 0.859295 0.038037
vt 0.853599 0.038043
vt 0.854043 0.003619
vt 0.396981 0.715192
vt 0.395706 0.749272
vt 0.389690 0.715593
vt 0.389143 0.745179
vt 0.907015 0.631825
vt 0.907002 0.666881
vt 0.906988 0.701938
vt 0.907056 0.526656
vt 0.907042 0.561712
vt 0.907029 0.596768
vt 0.389710 0.680782
vt 0.389791 0.541538
vt 0.389143 0.510828
vt 0.395595 0.540986
vt 0.395847 0.506866
vt 0.861541 0.005893
vt 0.910268 0.290113
vt 0.912745 0.255026
vt 0.912745 0.427404
vt 0.854746 0.178299
vt 0.862122 0.178294
vt 0.853599 0.143236
vt 0.397001 0.680380
vt 0.389731 0.645971
vt 0.395535 0.645420
vt 0.389751 0.611160
vt 0.397041 0.610758
vt 0.389771 0.576349
vt 0.395575 0.575797
vt 0.853599 0.073107
vt 0.234007 0.751279
vt 0.234571 0.757034
vt 0.390213 0.752097
vt 0.377392 0.506866
vt 0.381906 0.540874
vt 0.375895 0.540695
vt 0.120615 0.884501
vt 0.125691 0.902122
vt 0.120615 0.906462
vt 0.393841 0.869820
vt 0.393841 0.904301
vt 0.389143 0.872667
vt 0.362832 0.860645
vt 0.361146 0.840718
vt 0.360675 0.819016
vt 0.362270 0.798429
vt 0.375795 0.751519
vt 0.373096 0.716034
vt 0.376721 0.715755
vt 0.377323 0.745354
vt 0.238824 0.550049
vt 0.235390 0.515955
vt 0.238704 0.619133
vt 0.211714 0.776152
vt 0.211714 0.878192
vt 0.211363 0.843393
vt 0.239803 0.584709
vt 0.238525 0.722758
vt 0.239624 0.688335
vt 0.927942 0.464048
vt 0.927658 0.398288
vt 0.927942 0.363286
vt 0.381906 0.715954
vt 0.104556 0.895100
vt 0.097409 0.889174
vt 0.100816 0.870824
vt 0.362832 0.777284
vt 0.903206 0.888479
vt 0.902801 0.923276
vt 0.902801 0.752021
vt 0.100981 0.849673
vt 0.098538 0.744637
vt 0.377624 0.575695
vt 0.373096 0.575970
vt 0.355755 0.837229
vt 0.381906 0.610906
vt 0.375895 0.610727
vt 0.356879 0.794940
vt 0.234374 0.583967
vt 0.238644 0.653674
vt 0.234195 0.687593
vt 0.381906 0.645922
vt 0.375895 0.645743
vt 0.357441 0.773795
vt 0.377624 0.680743
vt 0.373096 0.681018
vt 0.362361 0.755582
vt 0.234490 0.510041
vt 0.240261 0.506868
vt 0.360346 0.506866
vt 0.364687 0.540055
vt 0.360036 0.539302
vt 0.853788 0.427515
vt 0.853599 0.394662
vt 0.858260 0.394190
vt 0.861000 0.425977
vt 0.858825 0.359399
vt 0.860435 0.324542
vt 0.100598 0.712653
vt 0.101477 0.677770
vt 0.105816 0.712214
vt 0.105325 0.748552
vt 0.359498 0.748345
vt 0.358746 0.712090
vt 0.364356 0.712622
vt 0.906610 0.439345
vt 0.906610 0.476458
vt 0.905189 0.446291
vt 0.365859 0.509816
vt 0.235387 0.919957
vt 0.234007 0.833736
vt 0.237452 0.767830
vt 0.927963 0.255026
vt 0.927963 0.356049
vt 0.927658 0.321112
vt 0.218951 0.925568
vt 0.218951 0.882606
vt 0.221220 0.904490
vt 0.365859 0.742452
vt 0.365762 0.678381
vt 0.219503 0.875369
vt 0.218951 0.810873
vt 0.219503 0.776152
vt 0.361433 0.741436
vt 0.861000 0.289751
vt 0.920421 0.391982
vt 0.919982 0.426928
vt 0.919982 0.255026
vt 0.097409 0.506866
vt 0.361011 0.573872
vt 0.854385 0.359983
vt 0.355755 0.540139
vt 0.355843 0.574678
vt 0.364864 0.609132
vt 0.359347 0.608427
vt 0.854969 0.324976
vt 0.365495 0.574766
vt 0.364953 0.643670
vt 0.361277 0.677487
vt 0.359436 0.642965
vt 0.855534 0.290185
vt 0.356110 0.678293
vt 0.860520 0.255026
vt 0.234007 0.856230
vt 0.411136 0.506866
vt 0.411185 0.539026
vt 0.405377 0.539544
vt 0.404654 0.507879
vt 0.801099 0.964249
vt 0.801545 0.929195
vt 0.801991 0.894142
vt 0.404279 0.713596
vt 0.404498 0.678786
vt 0.410086 0.713078
vt 0.407892 0.749834
vt 0.411185 0.743770
vt 0.113691 0.550777
vt 0.119387 0.550792
vt 0.119131 0.620920
vt 0.119259 0.585856
vt 0.118749 0.726113
vt 0.118876 0.691048
vt 0.119004 0.655984
vt 0.113053 0.726098
vt 0.799951 0.752021
vt 0.803328 0.788981
vt 0.802436 0.859088
vt 0.802882 0.824034
vt 0.410965 0.573836
vt 0.405158 0.574354
vt 0.410745 0.608646
vt 0.404938 0.609165
vt 0.113563 0.585841
vt 0.113436 0.620905
vt 0.113308 0.655969
vt 0.113180 0.691033
vt 0.410525 0.643457
vt 0.404718 0.643975
vt 0.410306 0.678267
vt 0.451365 0.664912
vt 0.455425 0.666936
vt 0.164309 0.843619
vt 0.162728 0.809931
vt 0.168134 0.810826
vt 0.176843 0.920061
vt 0.175372 0.886689
vt 0.176843 0.851717
vt 0.886467 0.255026
vt 0.884666 0.322578
vt 0.883626 0.357003
vt 0.562890 0.484348
vt 0.546474 0.517560
vt 0.542081 0.514798
vt 0.555912 0.487929
vt 0.678264 0.610695
vt 0.676069 0.484348
vt 0.678439 0.568391
vt 0.926900 0.830856
vt 0.926900 0.730227
vt 0.927286 0.765229
vt 0.677306 0.589010
vt 0.155491 0.839091
vt 0.153610 0.818421
vt 0.155491 0.797858
vt 0.195680 0.776151
vt 0.196416 0.845112
vt 0.195680 0.879903
vt 0.149268 0.834302
vt 0.538802 0.513229
vt 0.691512 0.484348
vt 0.695372 0.520946
vt 0.917538 0.796661
vt 0.917844 0.761767
vt 0.918845 0.899798
vt 0.918845 0.726778
vt 0.695026 0.555486
vt 0.471407 0.635750
vt 0.476525 0.638907
vt 0.168134 0.776152
vt 0.486340 0.604239
vt 0.490400 0.606263
vt 0.889057 0.357736
vt 0.682774 0.592376
vt 0.155321 0.776152
vt 0.150149 0.794294
vt 0.503827 0.573902
vt 0.507887 0.575926
vt 0.889057 0.392278
vt 0.883626 0.391545
vt 0.523869 0.544740
vt 0.528987 0.547897
vt 0.884666 0.426204
vt 0.678526 0.547239
vt 0.678489 0.671431
vt 0.677740 0.706317
vt 0.679077 0.741020
vt 0.554679 0.902807
vt 0.538673 0.878769
vt 0.559752 0.906864
vt 0.545485 0.875161
vt 0.562890 0.902304
vt 0.151851 0.911488
vt 0.149268 0.891772
vt 0.150031 0.869291
vt 0.151851 0.846328
vt 0.459591 0.725544
vt 0.476202 0.755635
vt 0.455259 0.727008
vt 0.451184 0.730286
vt 0.113053 0.811221
vt 0.113378 0.776152
vt 0.113378 0.913443
vt 0.187777 0.798635
vt 0.188443 0.776152
vt 0.188443 0.885792
vt 0.162728 0.884157
vt 0.164673 0.850856
vt 0.164673 0.918999
vt 0.935240 0.553182
vt 0.935904 0.484348
vt 0.935904 0.725471
vt 0.679370 0.775815
vt 0.681977 0.845227
vt 0.678621 0.810701
vt 0.674511 0.845700
vt 0.895180 0.433441
vt 0.897952 0.457263
vt 0.895180 0.476458
vt 0.683193 0.705749
vt 0.471069 0.757779
vt 0.684075 0.810133
vt 0.683725 0.740434
vt 0.489117 0.787186
vt 0.493523 0.785516
vt 0.523032 0.847423
vt 0.503146 0.819930
vt 0.485825 0.790049
vt 0.507221 0.816652
vt 0.683794 0.775121
vt 0.511553 0.815188
vt 0.528164 0.845279
vt 0.214815 0.506866
vt 0.336542 0.768100
vt 0.336763 0.920096
vt 0.436876 0.355494
vt 0.436876 0.118748
vt 0.641619 0.477111
vt 0.641619 0.003619
vt 0.846362 0.361982
vt 0.846362 0.125236
vt 0.003619 0.507899
vt 0.004742 0.744537
vt 0.003619 0.888386
vt 0.955164 0.244939
vt 0.955164 0.006470
s 0
f 5/1/1 6/2/1 4/3/1
f 5/1/1 4/3/1 3/4/1
f 14/5/2 7/6/2 1/7/2
f 14/5/3 1/7/3 2/8/3
f 2/9/4 3/10/4 14/11/4
f 3/4/5 4/3/5 75/12/5
f 3/4/6 75/12/6 14/5/6
f 4/3/5 6/2/5 75/12/5
f 5/1/7 75/12/7 6/2/7
f 2/8/8 1/7/8 8/13/8
f 2/8/9 8/13/9 3/4/9
f 3/4/10 8/13/10 5/1/10
f 8/13/11 1/7/11 12/14/11
f 8/15/12 12/16/12 5/17/12
f 1/7/13 7/6/13 12/14/13
f 14/5/14 12/14/14 7/6/14
f 13/18/15 9/19/15 10/20/15
f 13/18/16 10/20/16 11/21/16
f 13/18/17 11/21/17 12/14/17
f 12/14/18 14/5/18 13/18/18
f 28/22/19 21/23/19 20/24/19
f 28/25/20 20/26/20 19/27/20
f 24/28/21 16/29/21 17/30/21
f 24/28/22 17/30/22 10/20/22
f 10/31/23 17/32/23 16/33/23
f 10/34/24 16/35/24 18/36/24
f 18/36/21 16/35/21 15/37/21
f 18/36/21 15/37/21 19/38/21
f 18/39/25 19/40/25 10/41/25
f 20/42/26 21/43/26 22/44/26
f 20/42/21 22/44/21 19/45/21
f 19/46/27 22/47/27 23/48/27
f 19/49/28 23/50/28 10/20/28
f 28/51/29 27/52/29 21/43/29
f 22/44/30 21/43/30 23/53/30
f 21/43/31 27/52/31 23/53/31
f 10/20/32 9/19/32 24/28/32
f 19/38/33 15/37/33 28/54/33
f 15/37/34 16/35/34 9/55/34
f 15/56/35 9/57/35 28/58/35
f 16/59/36 24/60/36 9/61/36
f 27/62/37 28/63/37 26/64/37
f 26/64/38 28/63/38 25/65/38
f 45/66/39 35/67/39 34/68/39
f 45/66/40 34/68/40 29/69/40
f 41/70/41 40/71/41 31/72/41
f 41/70/42 31/72/42 26/64/42
f 26/64/43 31/72/43 32/73/43
f 26/64/43 32/73/43 33/74/43
f 33/74/41 32/73/41 30/75/41
f 33/74/41 30/75/41 29/76/41
f 29/76/41 34/77/41 36/78/41
f 29/76/41 36/78/41 33/74/41
f 33/74/43 36/78/43 26/64/43
f 34/77/41 35/79/41 37/80/41
f 34/77/41 37/80/41 36/78/41
f 36/78/44 37/80/44 39/81/44
f 36/78/45 39/81/45 26/64/45
f 45/82/46 39/81/46 35/79/46
f 35/79/47 39/81/47 38/83/47
f 35/79/41 38/83/41 37/80/41
f 37/80/48 38/83/48 39/81/48
f 26/64/49 25/65/49 41/70/49
f 29/69/39 30/84/39 45/66/39
f 30/85/50 40/86/50 25/87/50
f 30/85/51 25/87/51 45/88/51
f 40/86/52 41/89/52 25/87/52
f 31/72/41 40/71/41 32/73/41
f 32/73/41 40/71/41 30/75/41
f 43/90/53 44/91/53 45/82/53
f 45/82/54 44/91/54 39/81/54
f 45/82/55 42/92/55 43/90/55
f 57/93/56 50/94/56 49/95/56
f 57/93/57 49/95/57 46/96/57
f 43/97/58 53/98/58 48/99/58
f 43/97/58 48/99/58 47/100/58
f 57/93/59 56/101/59 50/94/59
f 46/102/60 49/103/60 51/104/60
f 46/102/60 51/104/60 47/100/60
f 47/100/61 51/104/61 43/97/61
f 51/104/62 49/103/62 56/105/62
f 51/106/63 56/107/63 43/108/63
f 50/109/64 56/110/64 52/111/64
f 50/109/60 52/111/60 49/112/60
f 49/113/65 52/114/65 56/115/65
f 46/116/66 47/117/66 57/118/66
f 47/119/67 48/120/67 42/121/67
f 47/119/68 42/121/68 57/122/68
f 48/120/67 53/123/67 42/121/67
f 43/124/69 42/121/69 53/123/69
f 55/125/70 56/126/70 57/127/70
f 55/125/71 57/127/71 54/128/71
f 68/129/72 63/130/72 62/131/72
f 68/129/73 62/131/73 61/132/73
f 54/133/74 60/134/74 59/135/74
f 54/133/75 59/135/75 58/136/75
f 68/129/76 67/137/76 63/130/76
f 58/136/75 61/138/75 54/133/75
f 61/132/77 62/131/77 67/137/77
f 61/132/78 67/137/78 54/128/78
f 62/131/77 63/130/77 67/137/77
f 61/132/72 58/139/72 68/129/72
f 58/140/79 54/141/79 68/142/79
f 60/143/80 54/144/80 64/145/80
f 60/143/81 64/145/81 59/146/81
f 59/147/82 64/148/82 54/149/82
f 65/150/83 66/151/83 67/152/83
f 67/152/84 68/153/84 65/150/84
f 78/154/85 73/155/85 72/156/85
f 78/154/85 72/156/85 71/157/85
f 65/158/86 74/159/86 70/160/86
f 65/158/87 70/160/87 69/161/87
f 69/161/86 71/162/86 65/158/86
f 71/162/88 78/163/88 65/158/88
f 71/157/89 69/164/89 78/154/89
f 69/164/90 65/165/90 78/154/90
f 5/1/91 76/166/91 77/167/91
f 5/168/92 77/169/92 75/170/92
f 77/169/93 78/171/93 75/170/93
f 149/172/94 56/173/94 150/174/94
f 150/175/95 56/126/95 55/125/95
f 150/175/96 55/125/96 147/176/96
f 147/176/97 55/125/97 54/128/97
f 54/128/98 67/137/98 147/176/98
f 147/176/99 67/137/99 125/177/99
f 125/177/100 67/137/100 66/178/100
f 125/177/101 66/178/101 126/179/101
f 126/180/102 66/151/102 65/150/102
f 126/180/103 65/150/103 108/181/103
f 65/150/104 78/171/104 108/181/104
f 108/181/105 78/171/105 101/182/105
f 101/182/106 78/171/106 77/169/106
f 101/182/107 77/169/107 100/183/107
f 100/183/108 77/169/108 76/184/108
f 100/185/109 76/166/109 99/186/109
f 99/186/110 76/166/110 5/1/110
f 5/1/111 12/14/111 99/186/111
f 99/186/112 12/14/112 93/187/112
f 75/188/113 68/142/113 14/189/113
f 14/189/114 68/142/114 54/141/114
f 14/189/115 54/141/115 9/57/115
f 9/57/116 54/141/116 57/122/116
f 9/57/117 57/122/117 28/58/117
f 28/58/118 57/122/118 42/121/118
f 28/58/119 42/121/119 25/87/119
f 25/87/120 42/121/120 45/88/120
f 75/190/121 78/154/121 65/165/121
f 75/170/122 65/150/122 68/153/122
f 13/191/123 14/189/123 9/57/123
f 115/192/124 190/193/124 79/194/124
f 79/194/125 190/193/125 80/195/125
f 190/193/126 172/196/126 80/195/126
f 80/195/127 172/196/127 81/197/127
f 172/198/128 153/199/128 81/200/128
f 81/200/128 153/199/128 82/201/128
f 86/202/129 84/203/129 83/204/129
f 84/203/130 85/205/130 83/204/130
f 86/202/131 87/206/131 84/203/131
f 91/207/132 89/208/132 88/209/132
f 89/208/133 90/210/133 88/209/133
f 96/211/134 92/212/134 95/213/134
f 92/214/135 190/215/135 94/216/135
f 92/212/136 94/217/136 95/213/136
f 95/213/137 94/217/137 93/187/137
f 98/218/138 97/219/138 99/186/138
f 97/220/139 101/182/139 100/183/139
f 97/219/140 100/185/140 99/186/140
f 123/221/141 102/222/141 103/223/141
f 103/223/142 102/222/142 104/224/142
f 103/225/143 104/226/143 117/227/143
f 103/225/144 117/227/144 105/228/144
f 113/229/145 105/230/145 119/231/145
f 113/229/146 119/231/146 112/232/146
f 114/233/147 112/232/147 106/234/147
f 114/233/148 106/234/148 97/235/148
f 102/236/149 123/237/149 107/238/149
f 107/238/150 123/237/150 108/239/150
f 101/182/151 110/240/151 108/181/151
f 108/181/152 110/240/152 121/241/152
f 108/181/152 121/241/152 107/242/152
f 101/182/153 111/243/153 122/244/153
f 101/182/153 122/244/153 109/245/153
f 107/238/154 121/246/154 102/236/154
f 111/247/155 101/248/155 106/249/155
f 106/249/156 101/248/156 97/250/156
f 97/235/157 115/251/157 114/233/157
f 105/230/158 113/229/158 103/223/158
f 113/252/159 112/253/159 103/254/159
f 114/233/160 115/251/160 112/232/160
f 112/232/160 115/251/160 103/223/160
f 102/222/161 116/255/161 104/224/161
f 104/224/161 116/255/161 117/256/161
f 116/255/162 118/257/162 105/230/162
f 116/255/146 105/230/146 117/256/146
f 102/236/154 121/246/154 116/258/154
f 116/258/154 121/246/154 110/259/154
f 116/258/163 110/259/163 118/260/163
f 118/260/164 110/259/164 109/261/164
f 118/260/165 109/261/165 119/262/165
f 119/262/154 109/261/154 122/263/154
f 119/262/163 122/263/163 120/264/163
f 120/264/164 122/263/164 111/247/164
f 120/264/164 111/247/164 106/249/164
f 118/257/166 119/231/166 105/230/166
f 119/231/162 120/265/162 112/232/162
f 120/265/147 106/234/147 112/232/147
f 109/245/167 110/240/167 101/182/167
f 124/266/168 125/177/168 123/267/168
f 108/239/169 123/237/169 126/268/169
f 123/267/170 125/177/170 126/179/170
f 146/269/171 134/270/171 127/271/171
f 146/272/172 127/273/172 128/274/172
f 146/275/173 128/276/173 129/277/173
f 129/278/174 128/279/174 139/280/174
f 129/278/175 139/280/175 130/281/175
f 123/282/176 137/283/176 133/284/176
f 123/282/177 133/284/177 124/285/177
f 134/286/178 146/287/178 147/176/178
f 125/177/179 135/288/179 147/176/179
f 147/289/180 135/290/180 144/291/180
f 147/176/181 144/292/181 134/286/181
f 125/177/182 136/293/182 145/294/182
f 125/295/183 145/296/183 143/297/183
f 136/293/184 125/177/184 124/266/184
f 136/298/185 124/285/185 133/284/185
f 123/299/186 103/300/186 137/301/186
f 130/281/187 131/302/187 129/278/187
f 131/303/188 132/304/188 129/305/188
f 137/301/189 103/300/189 132/306/189
f 132/306/189 103/300/189 129/307/189
f 134/270/190 138/308/190 127/271/190
f 127/271/191 138/308/191 139/309/191
f 127/310/192 139/280/192 128/279/192
f 138/308/193 135/311/193 140/312/193
f 138/308/194 140/312/194 139/309/194
f 139/280/195 140/313/195 130/281/195
f 134/286/196 144/292/196 138/314/196
f 138/314/197 144/292/197 135/288/197
f 143/315/196 145/294/196 141/316/196
f 141/316/197 145/294/197 136/293/197
f 135/311/198 143/317/198 140/312/198
f 140/312/198 143/317/198 142/318/198
f 140/313/199 142/319/199 130/281/199
f 130/281/199 142/319/199 131/302/199
f 143/317/190 141/320/190 142/318/190
f 142/318/191 141/320/191 132/321/191
f 142/319/192 132/322/192 131/302/192
f 141/320/200 136/298/200 133/284/200
f 141/320/201 133/284/201 132/321/201
f 132/321/202 133/284/202 137/283/202
f 143/315/203 135/288/203 125/177/203
f 148/323/204 149/324/204 146/287/204
f 149/324/205 150/175/205 146/287/205
f 146/287/206 150/175/206 147/176/206
f 84/325/207 158/326/207 151/327/207
f 84/328/208 151/329/208 152/330/208
f 84/328/209 152/330/209 153/331/209
f 153/331/210 152/330/210 163/332/210
f 153/331/211 163/332/211 154/333/211
f 161/334/212 156/335/212 157/336/212
f 161/334/213 157/336/213 146/337/213
f 146/338/214 157/339/214 160/340/214
f 146/341/215 160/342/215 148/343/215
f 158/326/216 84/325/216 87/344/216
f 149/345/217 159/346/217 87/347/217
f 87/348/218 159/349/218 168/350/218
f 87/351/219 168/352/219 158/353/219
f 149/354/220 160/340/220 169/355/220
f 149/356/221 169/357/221 167/358/221
f 160/340/222 149/354/222 148/359/222
f 146/337/223 129/307/223 161/334/223
f 154/333/224 155/360/224 153/331/224
f 155/361/225 156/362/225 153/363/225
f 161/334/226 129/307/226 156/335/226
f 156/335/210 129/307/210 153/364/210
f 158/326/227 162/365/227 151/327/227
f 151/329/228 162/366/228 152/330/228
f 152/367/229 162/365/229 163/368/229
f 162/365/230 159/369/230 164/370/230
f 162/365/231 164/370/231 163/368/231
f 163/332/232 164/371/232 154/333/232
f 158/326/233 168/372/233 162/365/233
f 162/365/234 168/372/234 159/369/234
f 167/373/233 169/355/233 166/374/233
f 166/374/235 169/355/235 160/340/235
f 159/369/236 167/373/236 164/370/236
f 164/370/236 167/373/236 165/375/236
f 164/371/237 165/376/237 154/333/237
f 154/333/237 165/376/237 155/360/237
f 167/373/238 166/374/238 165/375/238
f 165/375/239 166/374/239 156/377/239
f 165/376/240 156/378/240 155/360/240
f 166/374/241 160/340/241 156/377/241
f 156/377/242 160/340/242 157/339/242
f 167/379/243 159/346/243 149/345/243
f 89/380/244 170/381/244 171/382/244
f 89/380/245 171/382/245 172/383/245
f 172/198/246 171/384/246 183/385/246
f 172/198/247 183/385/247 173/386/247
f 181/387/164 180/388/164 175/389/164
f 181/387/248 175/389/248 84/390/248
f 84/390/249 175/389/249 85/391/249
f 170/392/250 89/208/250 176/393/250
f 176/393/251 89/208/251 91/207/251
f 83/204/252 178/394/252 91/207/252
f 91/207/253 178/394/253 187/395/253
f 91/207/253 187/395/253 176/393/253
f 83/204/254 179/396/254 188/397/254
f 83/204/254 188/397/254 177/398/254
f 176/393/147 187/395/147 170/392/147
f 179/396/255 83/204/255 85/205/255
f 179/396/256 85/205/256 175/399/256
f 84/400/257 153/199/257 181/401/257
f 173/386/246 174/402/246 172/198/246
f 174/402/258 180/403/258 172/198/258
f 181/401/246 153/199/246 180/403/246
f 180/403/246 153/199/246 172/198/246
f 170/381/164 182/404/164 171/382/164
f 171/382/164 182/404/164 183/405/164
f 182/404/164 184/406/164 183/405/164
f 183/405/164 184/406/164 173/407/164
f 170/392/147 187/395/147 182/408/147
f 182/408/147 187/395/147 178/394/147
f 182/408/147 178/394/147 184/409/147
f 184/409/147 178/394/147 177/398/147
f 184/409/147 177/398/147 185/410/147
f 185/410/147 177/398/147 188/397/147
f 185/410/147 188/397/147 186/411/147
f 186/411/147 188/397/147 179/396/147
f 186/411/147 179/396/147 175/399/147
f 184/406/164 185/412/164 173/407/164
f 173/407/164 185/412/164 174/413/164
f 185/412/164 186/414/164 174/413/164
f 174/413/164 186/414/164 180/388/164
f 186/414/164 175/389/164 180/388/164
f 177/398/254 178/394/254 83/204/254
f 92/214/259 196/415/259 190/215/259
f 190/215/260 196/415/260 189/416/260
f 190/417/261 189/418/261 191/419/261
f 190/420/262 191/421/262 201/422/262
f 190/423/263 201/424/263 192/425/263
f 89/426/264 199/427/264 195/428/264
f 89/426/265 195/428/265 90/429/265
f 196/430/266 92/212/266 96/211/266
f 88/431/267 197/432/267 96/211/267
f 96/433/268 197/434/268 206/435/268
f 96/211/269 206/436/269 196/430/269
f 88/437/270 198/438/270 207/439/270
f 88/440/271 207/441/271 205/442/271
f 198/438/272 88/437/272 90/443/272
f 198/444/273 90/429/273 195/428/273
f 89/445/274 172/196/274 199/446/274
f 192/447/275 193/448/275 190/449/275
f 193/448/276 194/450/276 190/449/276
f 199/446/277 172/196/277 194/451/277
f 194/451/278 172/196/278 190/193/278
f 196/415/191 200/452/191 189/416/191
f 189/416/190 200/452/190 201/453/190
f 189/418/196 201/454/196 191/419/196
f 200/452/194 197/455/194 202/456/194
f 200/452/193 202/456/193 201/453/193
f 201/424/197 202/457/197 192/425/197
f 196/430/192 206/436/192 200/458/192
f 200/458/195 206/436/195 197/432/195
f 205/459/192 207/439/192 204/460/192
f 204/460/195 207/439/195 198/438/195
f 197/455/279 205/461/279 202/456/279
f 202/456/279 205/461/279 203/462/279
f 202/457/280 203/463/280 192/425/280
f 192/425/280 203/463/280 193/464/280
f 205/461/191 204/465/191 203/462/191
f 203/462/190 204/465/190 194/466/190
f 203/463/196 194/467/196 193/464/196
f 204/465/281 198/444/281 195/428/281
f 204/465/282 195/428/282 194/466/282
f 194/466/283 195/428/283 199/427/283
f 205/468/284 197/432/284 88/431/284
f 93/187/285 215/469/285 219/470/285
f 93/187/286 219/470/286 221/471/286
f 98/472/287 209/473/287 97/474/287
f 97/474/288 209/473/288 210/475/288
f 97/474/289 210/475/289 115/476/289
f 115/477/290 210/478/290 225/479/290
f 115/477/291 225/479/291 211/480/291
f 216/481/234 213/482/234 214/483/234
f 216/481/292 214/483/292 190/215/292
f 215/469/293 93/187/293 94/217/293
f 215/484/294 94/216/294 214/483/294
f 214/483/295 94/216/295 190/215/295
f 211/485/296 212/486/296 115/487/296
f 212/488/290 213/489/290 115/490/290
f 216/491/297 190/492/297 213/493/297
f 213/494/298 190/495/298 115/496/298
f 221/471/299 208/497/299 93/187/299
f 98/218/300 99/186/300 209/498/300
f 208/497/301 217/499/301 99/186/301
f 208/497/302 99/186/302 93/187/302
f 209/498/303 99/186/303 218/500/303
f 209/498/304 218/500/304 217/499/304
f 217/501/305 218/502/305 99/503/305
f 219/470/232 215/469/232 220/504/232
f 220/505/231 215/484/231 214/483/231
f 220/505/230 214/483/230 213/482/230
f 217/499/232 208/497/232 222/506/232
f 217/499/306 222/506/306 209/498/306
f 221/471/240 219/470/240 220/504/240
f 221/471/307 220/504/307 223/507/307
f 223/508/308 220/505/308 212/509/308
f 212/509/236 220/505/236 213/482/236
f 209/473/309 222/510/309 210/475/309
f 208/511/229 221/512/229 224/513/229
f 224/514/228 221/471/228 223/507/228
f 224/513/227 223/508/227 212/509/227
f 224/513/233 212/509/233 211/515/233
f 208/511/231 224/513/231 222/510/231
f 222/510/230 224/513/230 225/516/230
f 222/510/236 225/516/236 210/475/236
f 225/516/234 224/513/234 211/515/234
f 26/64/310 39/81/310 91/207/310
f 91/207/311 39/81/311 83/204/311
f 23/517/312 27/62/312 88/209/312
f 88/209/313 27/62/313 26/64/313
f 88/209/314 26/64/314 91/207/314
f 10/20/315 23/50/315 96/211/315
f 96/211/316 23/50/316 88/431/316
f 93/187/317 12/14/317 11/21/317
f 93/187/318 11/21/318 95/213/318
f 95/213/319 11/21/319 10/20/319
f 95/213/320 10/20/320 96/211/320
f 83/204/321 39/81/321 44/91/321
f 83/204/322 44/91/322 86/202/322
f 86/202/323 44/91/323 43/90/323
f 86/202/324 43/90/324 87/206/324
f 43/518/325 56/519/325 87/347/325
f 87/347/326 56/519/326 149/345/326
f 226/520/327 79/521/327 227/522/327
f 227/522/327 79/521/327 80/523/327
f 227/522/327 80/523/327 82/524/327
f 82/524/327 80/523/327 81/525/327
f 153/364/328 129/307/328 82/526/328
f 82/526/328 129/307/328 227/527/328
f 129/307/329 103/300/329 227/527/329
f 227/527/329 103/300/329 226/528/329
f 103/223/330 115/251/330 226/529/330
f 226/529/330 115/251/330 79/530/330
