{
	"asset":{
		"generator":"Khronos glTF Blender I/O v5.1.20",
		"version":"2.0"
	},
	"scene":0,
	"scenes":[
		{
			"name":"Scene",
			"nodes":[
				0
			]
		}
	],
	"nodes":[
		{
			"mesh":0,
			"name":"WhiteKing_0",
			"rotation":[
				0,
				-0.7071068286895752,
				-0.7071068286895752,
				1.00153539642818e-16
			],
			"translation":[
				14.250007629394531,
				2.000000238418579,
				-2.1760663457826013e-06
			]
		}
	],
	"materials":[
		{
			"doubleSided":true,
			"name":"Root",
			"pbrMetallicRoughness":{
				"metallicFactor":0,
				"roughnessFactor":0.6000000238418579
			}
		}
	],
	"meshes":[
		{
			"name":"WhiteKing_0",
			"primitives":[
				{
					"attributes":{
						"POSITION":0,
						"NORMAL":1,
						"TEXCOORD_0":2,
						"TANGENT":3
					},
					"indices":4,
					"material":0
				}
			]
		}
	],
	"accessors":[
		{
			"bufferView":0,
			"componentType":5126,
			"count":566,
			"max":[
				2.25,
				2.25,
				9.662790298461914
			],
			"min":[
				-2.25,
				-2.25,
				0
			],
			"type":"VEC3"
		},
		{
			"bufferView":1,
			"componentType":5126,
			"count":566,
			"type":"VEC3"
		},
		{
			"bufferView":2,
			"componentType":5126,
			"count":566,
			"type":"VEC2"
		},
		{
			"bufferView":3,
			"componentType":5126,
			"count":566,
			"type":"VEC4"
		},
		{
			"bufferView":4,
			"componentType":5123,
			"count":1428,
			"type":"SCALAR"
		}
	],
	"bufferViews":[
		{
			"buffer":0,
			"byteLength":6792,
			"byteOffset":0,
			"target":34962
		},
		{
			"buffer":0,
			"byteLength":6792,
			"byteOffset":6792,
			"target":34962
		},
		{
			"buffer":0,
			"byteLength":4528,
			"byteOffset":13584,
			"target":34962
		},
		{
			"buffer":0,
			"byteLength":9056,
			"byteOffset":18112,
			"target":34962
		},
		{
			"buffer":0,
			"byteLength":2856,
			"byteOffset":27168,
			"target":34963
		}
	],
	"buffers":[
		{
			"byteLength":30024,
			"uri":"king.bin"
		}
	]
}
