# Blender 5.1.2
# www.blender.org
mtllib prince.mtl
o prince
v -3.937749 15.418419 2.343290
v 5.098117 33.897709 -1.912703
v 4.916406 34.333168 -1.611057
v -4.278478 14.502556 4.034897
v 7.316517 0.124055 -7.347476
v 1.364069 44.206596 2.084923
v 4.851207 33.341541 -2.038718
v 4.064331 34.091148 -3.534362
v 9.910579 0.093781 -3.039875
v 9.018125 0.192749 -5.170780
v -2.027421 14.486421 5.578835
v 0.499727 44.394554 2.248593
v -5.253974 14.461993 2.614479
v 9.042502 0.006332 -3.666683
v 6.740682 32.670074 -0.858686
v 3.824653 14.502866 -4.320060
v 3.315695 15.336093 -3.162519
v 1.811380 15.373026 -4.111490
v 9.681223 3.563633 -1.818383
v 9.055238 2.416644 -4.086207
v -5.775737 14.457305 1.004823
v 1.971684 14.454671 -5.422377
v 8.997146 2.988373 -1.321038
v 8.394797 2.816781 -3.440927
v 0.921979 0.000000 -6.220745
v 5.986857 0.003615 -7.640994
v 4.067534 0.000000 -4.758219
v 2.613803 0.001005 -9.214314
v 9.890257 2.465949 -0.897386
v -1.137256 -0.000675 -9.539673
v -2.420202 0.000000 -5.764719
v -5.263684 12.586171 1.890339
v -6.228129 0.011683 -7.318252
v -4.607183 0.000000 -4.230821
v 6.115207 0.000000 -1.695422
v 9.693420 0.004800 1.272013
v -3.187470 34.388103 1.830473
v -2.922583 35.629238 2.345577
v 7.786672 -0.002021 5.889042
v 6.002225 0.000000 1.978814
v -3.664804 35.634457 -0.088809
v 0.187536 43.735542 2.725985
v 4.918828 0.000748 8.293385
v 4.024864 0.000000 4.973917
v -3.997473 36.015156 1.453500
v 1.532521 0.000343 9.428927
v 0.609945 0.000000 6.346601
v 0.856583 -0.013673 9.531264
v -0.721526 0.004254 9.470117
v -1.232126 28.242157 2.764476
v -2.093502 0.000000 9.316000
v -2.420204 0.000000 5.881717
v 1.918305 43.375942 1.824486
v -9.799937 -0.003999 0.565062
v -6.055987 0.000000 -1.778611
v -8.812373 0.000667 -3.956485
v 0.948171 43.371925 3.150555
v -5.042139 0.000000 3.910714
v -7.640052 -0.007501 6.062690
v -6.216240 0.000000 1.067652
v -4.711425 0.002627 8.410153
v -2.989002 0.000000 9.091500
v 0.448133 43.261246 -5.044493
v -3.420438 14.333488 4.834424
v -2.291799 27.848284 1.760621
v -4.047589 12.589250 3.855810
v 2.054528 34.384899 -3.034950
v -2.780147 12.610701 4.864618
v 3.497425 35.674183 -1.152613
v 0.563437 43.355228 2.673379
v 4.344053 34.363571 2.830867
v 5.324178 34.219334 0.510359
v -2.040565 44.533154 0.443667
v 0.325727 43.374805 -2.537783
v 1.101833 43.372276 -2.890091
v 0.982799 42.140701 -3.506701
v -0.627121 43.228741 -5.076334
v -2.091746 43.956341 1.616641
v -0.681220 42.583561 -5.259208
v -2.789294 36.189274 3.346461
v -1.442027 43.372902 -2.598892
v -1.166788 42.140701 -3.506730
v -0.073794 27.520430 2.892848
v 0.525419 42.359520 -5.217887
v 4.930855 32.621140 4.826428
v -0.695791 44.389496 2.236947
v 3.107392 32.762047 6.003521
v 3.684244 32.186749 5.905484
v 3.595944 12.608837 -4.122635
v 1.803564 12.609987 -5.170851
v 5.258515 33.337997 0.715494
v -0.892563 14.578691 -5.662848
v -1.772331 43.375984 2.032726
v -0.350875 15.394226 -4.533930
v -1.314036 43.701942 2.371623
v 9.859006 3.554776 0.080056
v -5.518486 12.628304 -0.239004
v 8.926340 3.003665 1.966545
v 9.182360 2.768741 0.419437
v -4.264501 34.347015 3.107717
v -0.940385 10.002501 -6.220802
v -5.944084 10.002501 -2.167695
v -9.636448 3.747657 -2.174029
v -5.035915 33.759583 2.330421
v -5.309530 34.221577 0.303864
v -5.481796 33.802952 -0.268319
v -5.163034 33.364056 1.283561
v 5.472672 33.756115 0.487435
v -6.237171 32.600170 2.952254
v 3.737571 34.385612 0.503974
v 0.638846 35.662220 -3.520751
v 2.170899 35.617466 -2.855319
v -0.131204 14.235576 -5.804837
v -1.221591 41.189236 -4.563437
v 1.600442 32.274967 6.791069
v -1.212265 37.558342 -2.992287
v -2.478374 36.092529 -3.401021
v -3.388342 36.496155 -2.654842
v -1.645460 35.681820 -3.273624
v 1.733553 40.377941 -4.079212
v 9.756846 2.476679 1.849847
v 1.032401 31.067566 4.830671
v 5.549565 10.002501 -2.912181
v -9.867111 3.769800 0.710258
v 3.383928 39.919132 -2.584905
v -1.912606 15.461158 -3.966254
v -0.791738 34.387054 -3.515883
v -2.680701 34.386559 -2.371404
v -1.426806 34.346703 -4.957665
v 6.266675 10.002501 -0.339884
v 4.183232 36.022003 0.662384
v -3.052936 39.888081 -3.005243
v -6.241897 10.002501 0.894578
v -9.184149 3.787806 3.721553
v -5.158056 10.002501 3.754430
v 0.450203 43.329975 5.024610
v 0.568603 37.040154 -3.928746
v 1.008366 36.658230 -4.106030
v -1.021038 31.294792 5.272840
v 10.186056 0.028221 1.887899
v -0.452049 12.577311 -5.462173
v 10.024923 0.266026 3.016992
v -2.920614 14.365124 -5.017079
v 3.471503 35.666195 1.290571
v 3.725030 36.555847 2.246233
v 2.884512 35.886734 3.053222
v -2.397249 32.131847 6.465817
v 2.685712 36.987953 3.117386
v 3.018737 36.436005 3.162081
v -3.323711 33.923912 4.445693
v -2.238551 36.987164 -3.369375
v 2.554402 35.959534 -3.216712
v -4.062080 33.336922 3.474508
v -2.473937 33.346325 4.753869
v 2.054335 34.272270 -4.845503
v 2.883261 33.917244 -4.595859
v -1.232094 30.470343 4.140474
v -2.709261 12.630651 -4.770746
v 9.751291 3.672067 1.651175
v 2.204199 35.689743 3.031962
v -0.510742 32.262463 6.969236
v 0.311098 32.646877 6.886828
v -2.426312 10.002501 5.896634
v 3.688720 10.002501 5.205612
v -2.531765 32.672485 6.370551
v -5.903839 3.587473 8.005844
v 5.828494 10.002501 2.477283
v 3.080123 10.002501 -5.512364
v -1.022137 43.339813 3.370053
v 6.349356 3.836221 -7.482847
v -0.640623 42.722836 5.455046
v 9.323815 3.552892 3.303612
v 0.929708 41.328415 4.860825
v -1.542784 40.594551 4.426253
v -1.118960 37.541759 3.161253
v 5.092714 3.556821 8.559531
v 1.620438 41.288746 2.902334
v 4.060665 2.824385 8.230798
v -1.603275 41.356728 3.229500
v 2.541900 3.016411 8.856426
v 0.442884 42.816391 5.477986
v 2.904147 32.564697 -6.186779
v 4.893662 2.382780 8.769695
v 3.184341 33.331165 -4.192172
v -4.229548 32.681057 5.379281
v -3.029237 31.156818 -3.939564
v -5.996901 32.591877 -3.206662
v 1.742917 36.482315 4.017281
v -6.824995 32.155411 -0.897395
v -5.324286 32.542976 4.402449
v 1.003349 36.973846 4.034634
v -3.835887 30.915571 -2.651307
v -5.060172 31.196907 -0.694575
v 1.546925 32.603497 -6.602499
v -2.113963 3.562688 -9.593556
v 3.211924 32.079750 -5.918131
v 0.849306 35.949116 4.154072
v 0.690927 33.326241 -5.175666
v 8.577450 2.796059 3.128611
v 1.260927 31.169334 -4.855938
v -0.639957 43.321602 5.009422
v 4.970560 32.240379 -4.745469
v 0.704676 36.037205 -4.087668
v 5.684840 32.616184 -3.738774
v 7.806285 3.487580 6.047746
v 8.562275 3.867503 4.946713
v 8.489317 2.406403 5.366946
v -0.784361 35.983437 -4.000744
v 3.837916 31.074965 -3.010222
v 4.413852 0.238323 9.536037
v 6.484880 32.748344 1.855106
v 2.688621 3.700083 9.604716
v 4.672955 33.890228 2.955704
v 4.395636 33.328102 3.075537
v -0.896836 36.547428 -4.138800
v -4.032123 12.601937 -3.718197
v 1.568722 34.387650 3.464066
v 1.936522 30.051600 -3.326220
v -3.346153 29.602051 -1.116164
v 0.087621 37.511475 3.368519
v -0.657838 32.660870 -6.702893
v -3.118490 28.722704 -0.093371
v -0.236691 32.121071 -6.800415
v -4.008644 10.002501 -4.812714
v 9.047975 0.189909 5.249995
v -6.728084 32.655109 1.128638
v -2.269017 41.470207 -2.181965
v 3.618256 33.900410 4.183586
v 0.608091 33.634815 -5.322368
v -0.828052 33.964432 -5.327638
v -8.757036 3.571603 -4.510810
v 2.359537 33.918201 5.019640
v 7.916853 0.084430 6.808365
v 3.302964 3.572169 -9.260647
v 1.708339 34.343277 5.019389
v 1.895815 2.432551 9.864739
v -2.602138 32.640736 -6.229528
v -2.906770 32.124825 -6.144924
v -2.369488 43.403728 -1.024448
v -1.312958 31.201826 -4.866845
v 6.496204 3.468568 -7.347132
v -5.092592 43.280540 0.554717
v -4.700659 43.390125 -0.523859
v 0.292255 30.354971 -4.084089
v 0.289440 3.576760 9.967690
v 1.237644 2.791010 9.142709
v -4.700153 31.150335 1.830078
v 5.212843 3.011647 -7.390741
v 7.607855 2.910519 4.983151
v 3.503658 2.468873 -9.233845
v -3.593592 42.140980 -1.079734
v 5.026987 0.198558 -9.082303
v -0.064664 36.544987 4.420055
v 6.303507 2.891562 6.597485
v 3.142665 2.884029 -8.441920
v -4.005050 31.484934 4.044595
v -1.448121 29.707804 -3.245975
v -2.872251 30.512640 3.278254
v 6.247533 0.105694 8.398030
v 0.630992 35.672764 3.681325
v -5.477941 32.144024 4.228980
v 2.100014 0.053393 10.246357
v 0.871061 2.899460 -8.941958
v 0.232124 3.598960 -9.842260
v -4.530252 32.619518 -5.033583
v 0.765242 2.287204 -9.899600
v 0.608371 10.002501 6.330535
v -3.006499 33.851685 -4.543083
v -1.180511 35.658539 3.558843
v -2.611502 43.776348 0.393543
v -2.357652 36.662151 3.677960
v -2.549236 43.383121 0.600518
v 6.971075 3.741362 7.082845
v -5.398830 32.151970 -4.210905
v -3.877337 30.046762 1.023454
v -5.387458 42.748554 -0.562332
v 6.607684 2.488117 7.472576
v -1.403483 36.029316 4.084914
v -4.196811 34.355686 -2.978538
v -1.949363 33.339378 -4.891285
v -6.681471 32.132557 1.538046
v -1.436924 2.393281 9.975679
v -4.665302 41.185608 -1.140195
v 2.229286 0.106103 -10.112241
v -5.360870 42.586285 0.575375
v -1.821784 3.584911 9.784661
v -0.726864 2.870289 9.112121
v 6.733968 2.791603 -6.129322
v 0.952941 18.947742 -3.295776
v -2.697494 27.436052 -0.687377
v -1.799516 2.454815 -9.702033
v -2.869097 28.075520 0.595337
v -3.422345 2.754227 8.571022
v -1.198978 34.325764 5.186402
v -2.415126 24.991810 1.492063
v -1.583755 34.383625 3.386247
v -3.594009 33.346802 -3.768049
v 6.529144 32.243935 -2.146728
v -4.516243 33.708466 -3.004141
v 2.345491 33.364399 4.834743
v 6.825126 32.216114 -0.759055
v -4.493532 33.369419 -2.696767
v -3.550906 43.336433 0.932927
v -0.343279 0.117176 10.511538
v -3.255529 41.739758 1.334793
v 5.763638 14.495642 -0.872404
v 4.446771 15.375596 -1.200966
v 6.699594 32.073689 1.131182
v -1.491672 2.884256 -8.882569
v 1.688062 43.391975 -1.944687
v 6.567357 32.440647 2.265504
v -4.734604 41.271614 1.070180
v 2.515414 18.612925 -2.508263
v -3.558908 39.942150 2.547184
v 4.594639 31.199503 2.291591
v 3.093682 43.369320 -1.011511
v 2.638450 37.368805 -1.854458
v 1.787923 41.651287 -2.421651
v 5.098543 43.254589 -0.537146
v 4.990546 43.314472 0.531028
v 5.718355 32.183338 3.910900
v -1.180502 0.002000 9.451500
v 0.446271 33.780441 5.529325
v 4.084527 30.528082 -1.278691
v 4.733156 41.317711 -1.042829
v 3.472133 41.370838 -1.366486
v -0.350659 33.337151 5.384140
v 5.845837 14.316423 0.121483
v 5.342548 42.598534 -0.574958
v -2.093502 0.002000 9.316000
v 4.448033 15.463309 0.577610
v 4.130135 15.386243 2.129758
v -3.683061 32.183517 5.913540
v -0.598069 0.086733 -10.309426
v 5.009262 14.427227 -2.962741
v 4.976331 12.592814 -2.397255
v 3.479070 36.972225 -2.051292
v 2.244203 44.353588 -0.533344
v -9.724562 3.467980 -1.292767
v 2.134583 44.273827 1.164258
v -8.635357 2.871182 -2.663337
v 2.495875 43.397625 -0.750518
v -1.584695 33.829540 5.327912
v -3.906784 0.033799 -9.508847
v 5.532272 12.602970 -0.315184
v 1.314175 37.396278 -2.956558
v 3.354121 37.278820 -0.489478
v 1.812051 28.620022 -2.477957
v 3.121478 29.232021 -1.211375
v 4.475003 30.741663 0.739157
v 3.097984 28.796946 0.743985
v -9.960526 2.473231 -0.269462
v -9.076410 2.925580 0.118097
v 2.342653 23.154081 -1.529935
v 3.871623 37.053707 1.077475
v 4.287083 36.741814 0.136629
v -4.219540 3.630514 -8.910157
v 3.118790 19.764965 -0.993298
v 2.624090 43.459770 0.431094
v 2.879076 22.352465 0.764171
v 3.913382 36.387737 -1.773215
v 0.112247 28.909405 -3.110468
v -2.891243 37.373562 -1.498845
v -4.412524 2.454874 -8.818174
v 3.303634 37.532452 -0.309927
v 4.713440 14.427182 3.583851
v 0.657105 23.923508 -2.666467
v -1.024711 21.411947 -2.778792
v -9.407433 3.450003 2.994068
v 1.315740 21.246037 -2.755426
v -2.362095 23.489439 -1.549853
v 5.379612 42.661610 0.546458
v 1.830919 23.267906 2.323032
v -5.315186 2.788903 -7.389216
v -3.852686 36.958233 -1.305465
v -3.280476 37.359997 -0.105479
v -8.790983 2.895661 2.427725
v -4.640892 2.976170 -7.752766
v 3.178149 14.440722 4.986055
v 2.665449 15.418811 3.750114
v -5.842637 3.594700 -7.882472
v 5.663659 14.454254 1.526823
v -2.215906 28.381588 -1.881816
v -10.315372 0.117019 -1.483083
v 0.063909 22.185904 3.042611
v -0.068479 37.395336 -3.208269
v -1.806386 19.891666 2.831168
v -6.704861 2.438742 -7.321615
v -10.367509 0.137286 1.071148
v -1.861266 37.330269 -2.657455
v -4.186846 0.305798 -9.546118
v 4.750877 12.600768 2.950654
v 1.222893 44.495377 -1.669571
v 3.326212 12.569888 4.509178
v -0.565920 43.798061 -2.526067
v 0.003630 44.545719 -1.945099
v 0.870201 15.360901 4.600886
v -2.861554 37.469440 1.779831
v -4.028653 36.967831 0.779939
v -0.863159 15.555420 4.423544
v 1.484176 20.279072 2.971766
v -1.159385 23.452751 2.664459
v 2.260177 39.997761 3.753191
v 3.673013 39.973988 2.356896
v -6.523855 0.068480 -7.992112
v 0.784481 43.822411 -2.442155
v 3.035624 31.123646 4.025736
v -2.378429 15.411505 3.979113
v 3.116858 37.491241 1.090343
v -2.329730 19.072853 -2.545168
v 3.472367 41.370750 1.356416
v 9.034410 3.561374 -3.962110
v 3.039516 18.877329 1.872090
v 2.753859 37.333134 1.895074
v -7.842945 0.213044 -6.803525
v -1.207799 44.385365 -1.824940
v -8.346689 2.447985 5.526920
v -7.398247 3.642493 -6.509282
v -9.453281 2.380618 3.328952
v 3.084240 30.192551 2.678033
v 1.412100 16.581640 4.021170
v -7.868070 2.851100 4.642717
v -1.711070 43.402195 -1.977826
v 5.407412 12.597252 1.250145
v 2.142280 28.030159 1.983562
v 1.819510 14.478400 5.627612
v 1.475155 37.348854 3.018686
v 0.221279 29.847069 3.778501
v 1.480016 12.616191 5.437543
v -2.803826 37.182915 2.278714
v 0.116770 14.407909 5.935699
v -9.090279 2.451658 -4.011596
v 1.448692 29.472408 3.263504
v -7.510357 2.884884 -5.048503
v -3.005900 21.349096 -0.688571
v -3.249544 20.108400 0.505454
v -1.611695 37.026451 3.753636
v -2.162899 29.534313 2.890541
v -3.881641 35.868561 -1.289506
v -2.641896 19.506397 2.205246
v -4.313940 36.387936 -0.539451
v -10.027442 0.061572 2.660929
v -0.796793 12.584407 5.580475
v -3.121080 35.653576 -1.825041
v -3.014010 15.370637 -3.428000
v -4.198737 15.848145 1.167064
v 1.934933 27.243490 -1.942776
v -9.364717 0.177620 4.750772
v 2.615299 27.217495 -0.657288
v 2.694665 27.292660 0.790120
v -3.690531 3.589161 9.250102
v -0.349526 44.988346 -0.582512
v 8.138968 3.714243 -5.515234
v -0.589838 37.190033 3.544342
v 0.335593 27.164639 -2.700520
v -9.347039 0.135052 -4.584122
v -1.290075 27.375862 -2.385604
v -3.250180 3.000410 8.626946
v 7.414832 2.993855 -5.338009
v -5.685822 2.959250 7.143751
v 6.915288 2.437905 -7.115696
v -6.474897 2.794305 6.482663
v 2.794068 36.660965 -3.208833
v -4.686737 2.442136 8.864219
v 0.846069 44.955498 0.703223
v -0.515914 44.964935 0.696262
v -3.640133 34.388134 -0.395545
v -4.145350 15.432129 -1.733204
v -5.103030 33.969135 -1.964805
v -4.576389 14.491902 -3.566755
v 3.936521 35.971180 -1.275302
v -5.730355 14.466658 -1.270301
v -4.541030 15.467530 -0.186578
v -2.106382 44.373249 -0.778940
v 10.447577 0.233091 -0.168189
v -6.268034 2.484159 7.763317
v -6.680136 32.596279 -1.641808
v 1.109411 27.839100 2.700729
v -5.196429 33.346802 -0.924135
v -5.061226 12.574065 -2.196043
v -3.677760 0.300977 9.865992
v -2.989002 0.002000 9.091500
v -5.534692 0.041961 8.868402
v -7.589851 3.609430 6.443536
v 3.277962 43.358936 0.924552
v -3.790780 36.644569 2.121531
v 4.798080 41.373501 0.980767
v -7.500659 0.246929 7.341013
vn 0.1920 -0.1497 -0.9699
vn -0.0850 0.3338 0.9388
vn 0.2083 -0.9691 -0.1322
vn 0.9760 -0.1425 -0.1646
vn -0.6821 0.3618 -0.6355
vn 0.1852 0.9826 0.0171
vn -0.6835 0.4404 -0.5821
vn 0.5109 0.5342 -0.6735
vn -0.8990 0.2134 -0.3824
vn 0.7762 0.3176 -0.5447
vn 0.9695 0.1356 -0.2041
vn 0.7381 -0.3616 -0.5696
vn 0.9656 0.2560 0.0459
vn 0.9148 -0.3689 -0.1645
vn 0.7243 0.2866 0.6271
vn -0.3080 0.2761 -0.9105
vn -0.2765 0.0198 0.9608
vn -0.7725 -0.0721 0.6309
vn 0.5799 0.7801 -0.2348
vn -0.9783 -0.1244 0.1658
vn -0.3678 -0.0000 0.9299
vn 0.0830 0.8209 -0.5650
vn 0.0935 0.5507 -0.8295
vn -0.9686 0.0115 0.2484
vn 0.5315 -0.8469 0.0154
vn 0.7885 0.0152 -0.6148
vn -0.9616 0.1681 0.2171
vn 0.1288 0.7735 -0.6206
vn 0.7369 -0.6133 0.2843
vn 0.3242 -0.8767 -0.3554
vn 0.7926 0.1866 0.5804
vn 0.7732 -0.4987 0.3918
vn -0.1476 0.7256 -0.6721
vn 0.7740 -0.2997 0.5577
vn 0.5829 0.4193 -0.6960
vn 0.6756 0.4546 0.5805
vn 0.0838 0.0342 0.9959
vn -0.1500 0.5032 0.8511
vn 0.4595 0.6397 -0.6161
vn 0.1635 -0.1872 -0.9686
vn -0.7682 0.2073 0.6057
vn -0.3226 0.8134 0.4840
vn -0.8629 -0.3430 -0.3711
vn 0.3989 0.0953 -0.9120
vn 0.2275 -0.3574 -0.9058
vn 0.5121 0.6198 -0.5947
vn -0.0764 0.4291 0.9000
vn 0.5034 -0.1555 -0.8499
vn 0.0377 0.7248 -0.6879
vn -0.8963 -0.0030 0.4435
vn 0.3278 0.6813 -0.6545
vn 0.9824 -0.1521 -0.1087
vn -0.5685 0.6984 -0.4348
vn -0.0084 0.4131 -0.9107
vn 0.7376 -0.2284 0.6355
vn -0.5221 -0.4469 0.7264
vn 0.9176 0.2802 0.2821
vn 0.9061 -0.3694 0.2060
vn 0.0195 -0.0391 -0.9990
vn -0.2676 -0.7357 -0.6221
vn -0.3361 -0.2866 -0.8972
vn -0.4535 0.1526 -0.8781
vn -0.3359 -0.0539 -0.9404
vn -0.1059 0.1150 -0.9877
vn 0.6238 0.5735 0.5310
vn -0.0158 0.5970 0.8021
vn 0.0500 0.2152 -0.9753
vn 0.4416 -0.6203 -0.6483
vn -0.9450 -0.1135 0.3067
vn -0.5711 -0.0146 -0.8207
vn -0.7627 -0.6395 0.0970
vn -0.6835 -0.7298 -0.0180
vn -0.4200 0.8966 0.1401
vn 0.7253 -0.6595 0.1976
vn 0.9534 0.2778 -0.1181
vn -0.2365 -0.0089 -0.9716
vn -0.8155 -0.3351 -0.4719
vn 0.1717 0.4297 -0.8865
vn 0.9004 0.2835 0.3301
vn 0.5523 -0.5166 0.6543
vn 0.5081 -0.1123 -0.8540
vn 0.7411 -0.2462 -0.6247
vn 0.5280 0.0874 0.8448
vn 0.4544 -0.8159 0.3576
vn 0.5281 0.1785 0.8302
vn 0.1822 -0.8706 0.4570
vn -0.3353 -0.6786 -0.6535
vn -0.2470 0.4331 0.8669
vn 0.3351 -0.4116 -0.8475
vn -0.5208 0.1703 -0.8365
vn 0.2017 -0.8811 0.4277
vn -0.8550 -0.3486 0.3839
vn 0.9433 0.2120 0.2554
vn -0.8410 0.0921 0.5331
vn -0.0436 -0.4623 0.8857
vn 0.5115 -0.6427 0.5703
vn -0.2435 0.2379 0.9403
vn 0.7900 0.2581 -0.5562
vn -0.4397 0.2844 -0.8519
vn -0.6475 -0.6359 0.4200
vn 0.3777 0.1204 0.9181
vn 0.7822 0.3265 -0.5307
vn -0.0987 -0.4444 -0.8904
vn -0.5970 -0.2386 -0.7659
vn 0.2630 0.4812 0.8362
vn -0.1866 0.2566 -0.9483
vn 0.2857 0.9482 -0.1385
vn -0.2190 0.8055 -0.5507
vn -0.1670 -0.1072 0.9801
vn -0.3350 0.3296 -0.8827
vn -0.2921 -0.3077 0.9056
vn 0.9858 0.1010 0.1345
vn -0.4936 0.8215 0.2855
vn 0.3100 -0.8001 -0.5135
vn -0.9578 0.1194 0.2614
vn -0.7081 0.2667 0.6538
vn 0.3625 -0.8866 0.2871
vn -0.9448 -0.3258 0.0360
vn -0.8174 -0.4854 0.3103
vn -0.4837 -0.5190 -0.7048
vn -0.6748 -0.2695 -0.6871
vn 0.5282 -0.2809 0.8013
vn 0.9128 -0.3757 -0.1603
vn -0.3575 -0.2874 -0.8886
vn -0.6593 0.0202 -0.7516
vn 0.0311 0.9244 -0.3802
vn 0.9322 0.3535 0.0777
vn 0.9894 0.1244 0.0751
vn -0.0984 -0.3503 -0.9314
vn -0.7966 0.6034 -0.0360
vn 0.6842 0.0753 -0.7254
vn -0.5644 -0.3817 0.7320
vn 0.6943 0.6430 0.3233
vn -0.3547 0.7736 0.5252
vn 0.4928 -0.7075 0.5066
vn 0.0414 0.6183 0.7848
vn 0.2655 -0.3114 0.9124
vn 0.8609 0.0102 0.5086
vn -0.3917 0.0643 0.9179
vn -0.2048 -0.8965 0.3928
vn -0.0723 0.8939 0.4424
vn -0.4706 0.3519 0.8091
vn -0.1468 -0.0000 0.9892
vn -0.4898 0.1883 -0.8513
vn -0.1609 0.6791 -0.7162
vn -0.7013 0.2449 0.6695
vn 0.9397 0.2336 -0.2497
vn -0.7498 -0.3372 -0.5693
vn -0.4282 0.9035 -0.0151
vn -0.9857 -0.1602 -0.0520
vn 0.7273 -0.3955 -0.5608
vn 0.1280 -0.2244 -0.9661
vn 0.8122 -0.5754 -0.0963
vn 0.6535 -0.6440 -0.3977
vn -0.9715 0.0466 0.2326
vn -0.6688 0.0610 0.7409
vn -0.6827 -0.0539 0.7287
vn -0.9057 -0.3995 -0.1418
vn 0.8531 -0.5061 -0.1268
vn 0.8069 -0.0139 0.5905
vn 0.8071 0.4397 -0.3942
vn -0.9435 0.2691 -0.1934
vn 0.7935 -0.5960 -0.1231
vn 0.2587 -0.5616 -0.7860
vn -0.1831 0.2654 -0.9466
vn 0.4058 -0.4806 0.7774
vn -0.9949 0.0613 -0.0800
vn 0.1741 -0.0538 0.9833
vn 0.8700 0.1858 0.4567
vn -0.8205 0.5671 -0.0718
vn 0.5437 0.2455 -0.8026
vn -0.3083 -0.4820 -0.8201
vn 0.8570 0.5121 0.0579
vn 0.6300 0.0942 0.7709
vn -0.8605 -0.3558 0.3647
vn 0.9351 0.3507 -0.0506
vn 0.2229 -0.8256 0.5184
vn -0.1086 0.9189 0.3791
vn 0.5414 0.8360 -0.0897
vn 0.9005 0.4270 -0.0823
vn 0.1031 0.4351 -0.8945
vn -0.2631 0.1035 0.9592
vn -0.8365 -0.5477 0.0169
vn -0.5130 -0.0428 -0.8573
vn 0.6496 0.6652 0.3682
vn -0.9583 0.2482 0.1415
vn 0.6677 -0.1338 0.7323
vn -0.3821 0.7315 0.5647
vn 0.1562 -0.4925 -0.8562
vn -0.0760 0.9537 -0.2911
vn -0.2863 0.9136 -0.2886
vn 0.0403 -0.3715 0.9275
vn 0.7773 0.4216 0.4670
vn 0.1352 0.0252 0.9905
vn -0.4275 -0.5396 -0.7253
vn -0.2386 -0.4793 -0.8446
vn 0.2192 0.5888 0.7780
vn -0.5098 -0.1787 -0.8415
vn 0.3924 -0.2109 -0.8953
vn 0.4685 0.1314 -0.8736
vn -0.3155 0.5666 0.7612
vn 0.6165 0.6145 -0.4923
vn -0.7504 0.4362 -0.4967
vn -0.4598 0.7582 -0.4623
vn -0.1421 -0.9848 0.0998
vn 0.2747 0.9604 0.0473
vn -0.3296 0.9344 0.1353
vn -0.9652 0.1625 0.2050
vn -0.5103 0.7951 0.3277
vn -0.6846 -0.6472 -0.3353
vn -0.0795 0.2139 0.9736
vn -0.0055 -0.6844 -0.7291
vn 0.5681 -0.6673 0.4815
vn 0.5976 0.1819 -0.7809
vn -0.2945 0.2723 0.9160
vn 0.3059 -0.6254 0.7178
vn -0.9550 -0.2939 -0.0401
vn 0.0939 -0.6851 0.7223
vn -0.9819 0.0497 0.1830
vn -0.4308 0.7922 0.4322
vn -0.6584 -0.5648 -0.4975
vn 0.8326 -0.2075 0.5136
vn -0.4279 -0.8946 0.1285
vn 0.3820 0.2547 0.8883
vn -0.1011 -0.1409 0.9849
vn -0.1840 -0.7780 0.6007
vn -0.8028 0.1640 0.5733
vn -0.2115 -0.9030 0.3740
vn -0.3736 -0.8631 -0.3398
vn 0.2458 0.0121 0.9692
vn -0.0569 0.7420 0.6680
vn 0.9804 0.1969 0.0110
vn -0.6318 -0.7721 0.0681
vn 0.8783 -0.1031 -0.4669
vn 0.7308 -0.3455 -0.5886
vn 0.8165 -0.4654 0.3416
vn -0.5573 0.7847 -0.2714
vn 0.8834 0.0410 -0.4667
vn -0.5077 0.8572 0.0859
vn -0.9531 0.0544 -0.2979
vn -0.7906 -0.5564 -0.2556
vn 0.8742 0.4639 -0.1431
vn -0.2153 -0.2494 -0.9442
vn 0.9013 -0.1253 0.4147
vn -0.3540 -0.7953 0.4921
vn -0.6099 0.4320 0.6643
vn -0.5243 0.1154 0.8437
vn 0.0933 -0.9818 -0.1653
vn -0.7379 -0.3359 0.5854
vn -0.7673 -0.6413 0.0019
vn -0.4188 0.7657 0.4882
vn -0.1156 0.9736 0.1967
vn -0.0104 0.5898 0.8075
vn -0.2967 0.1583 0.9418
vn 0.1466 -0.7667 -0.6250
vn -0.3297 -0.9089 -0.2554
vn -0.8673 0.4490 -0.2151
vn -0.5147 0.1690 0.8405
vn -0.3467 -0.9304 -0.1188
vn 0.7404 0.0482 -0.6704
vn 0.7490 -0.6427 -0.1608
vn -0.4873 0.1942 0.8514
vn -0.2298 -0.5373 -0.8114
vn 0.0823 0.4378 0.8953
vn 0.5503 -0.8336 -0.0482
vn -0.6541 -0.5316 -0.5380
vn -0.7868 -0.0121 -0.6171
vn 0.3005 0.0313 -0.9533
vn 0.5421 -0.7464 -0.3860
vn -0.9245 0.2935 -0.2432
vn 0.7857 0.2999 -0.5410
vn 0.8675 -0.3661 0.3368
vn 0.6730 -0.1528 -0.7237
vn 0.5840 0.7788 -0.2290
vn 0.7870 0.1604 0.5957
vn 0.4262 -0.9039 -0.0359
vn -0.2450 -0.5207 0.8178
vn -0.1457 0.9192 -0.3658
vn 0.7698 0.1944 -0.6079
vn -0.9707 -0.2127 0.1119
vn 0.7520 0.5965 0.2805
vn 0.4485 -0.8938 0.0018
vn 0.9771 -0.1184 -0.1766
vn -0.9818 0.1897 -0.0033
vn -0.0157 -0.9953 0.0951
vn -0.9711 0.1680 0.1694
vn -0.1194 0.9928 0.0001
vn -0.1419 -0.8613 0.4878
vn 0.2196 0.6193 -0.7538
vn -0.7722 0.3447 -0.5338
vn -0.8387 -0.3955 -0.3743
vn -0.9752 0.1301 0.1792
vn -0.6534 0.2651 0.7090
vn -0.8983 0.4329 -0.0752
vn -0.6073 -0.6561 0.4480
vn 0.5500 0.6322 0.5457
vn -0.2209 0.3750 0.9003
vn 0.8315 -0.2454 -0.4984
vn -0.2961 0.9236 -0.2437
vn 0.4454 -0.8838 -0.1430
vn -0.3647 0.8883 -0.2793
vn 0.0003 -1.0000 -0.0007
vn 0.0006 -1.0000 -0.0004
vn 0.2648 0.8859 0.3809
vn -0.0363 0.8656 0.4995
vn 0.0181 0.9352 0.3536
vn -0.8493 0.2147 0.4822
vn -0.0380 0.8957 0.4430
vn -0.0392 -0.1584 0.9866
vn 0.3385 0.8746 0.3471
vn -0.9993 0.0193 -0.0307
vn 0.3093 0.2162 0.9261
vn -0.1828 0.0566 -0.9815
vn -0.3039 0.9155 0.2635
vn 0.5778 -0.7939 0.1896
vn -0.9711 -0.2117 -0.1101
vn -0.8118 -0.1895 -0.5523
vn -0.8927 -0.1234 -0.4334
vn 0.6192 -0.7459 0.2455
vn 0.9638 0.0518 0.2614
vn 0.1873 0.6856 -0.7035
vn 0.4768 0.8172 -0.3238
vn 0.7588 0.0099 -0.6513
vn 0.3690 -0.3483 0.8617
vn -0.7635 0.4384 0.4742
vn -0.5709 0.0698 0.8180
vn 0.9584 0.0824 -0.2732
vn 0.1202 -0.8520 -0.5096
vn -0.6913 -0.4036 -0.5994
vn 0.5261 0.5846 -0.6176
vn 0.0476 0.8430 -0.5358
vn 0.1466 -0.0000 -0.9892
vn 0.9970 -0.0021 0.0773
vn 0.8307 0.2742 -0.4845
vn -0.8939 0.0923 -0.4387
vn -0.6591 0.1635 0.7341
vn -0.2331 0.9058 -0.3538
vn 0.7922 0.1687 0.5864
vn 0.3469 0.9374 -0.0291
vn -0.5687 -0.7177 0.4018
vn -0.1437 0.9249 -0.3521
vn 0.1033 0.9535 -0.2830
vn 0.5073 0.2861 -0.8129
vn 0.2296 0.9479 -0.2210
vn -0.4249 0.8741 -0.2355
vn -0.8311 0.0206 0.5557
vn -0.7298 0.5632 -0.3874
vn 0.6080 -0.7876 0.1005
vn 0.3150 -0.7714 -0.5529
vn -0.0660 0.9181 -0.3909
vn -0.7549 0.3933 -0.5248
vn -0.8796 0.4329 0.1969
vn -0.9604 0.2776 -0.0225
vn 0.7944 0.6059 0.0436
vn -0.0280 -0.8573 0.5141
vn 0.7122 0.2739 0.6463
vn 0.8523 0.4350 0.2905
vn 0.2650 0.9183 0.2941
vn -0.4251 0.8195 0.3844
vn -0.5077 -0.8140 0.2823
vn -0.3333 -0.7636 -0.5530
vn 0.2245 0.5761 0.7859
vn -0.9282 0.0854 0.3621
vn 0.6888 0.4418 -0.5748
vn -0.9005 -0.3821 -0.2074
vn -0.7250 -0.0197 0.6885
vn 0.5742 0.0133 0.8186
vn -0.9595 0.1689 0.2256
vn 0.2835 -0.9485 0.1416
vn -0.3908 0.8401 0.3761
vn 0.1154 -0.1836 0.9762
vn 0.9546 0.2228 -0.1978
vn 0.0276 0.3112 0.9499
vn -0.3935 -0.5709 0.7206
vn 0.4234 0.8895 -0.1719
vn -0.6677 0.7250 -0.1690
vn -0.2587 0.4403 -0.8598
vn -0.0476 -0.2464 -0.9680
vn -0.5466 0.2023 -0.8126
vn -0.2317 0.8192 0.5246
vn -0.4753 0.5603 0.6784
vn -0.5065 0.8609 -0.0467
vn 0.1244 -0.7549 -0.6440
vn 0.1371 -0.7445 0.6534
vn -0.7015 -0.7110 0.0489
vn -0.4432 0.4277 0.7878
vn -0.6162 -0.7228 0.3128
vn 0.6350 -0.3592 0.6839
vn 0.8254 -0.3433 0.4483
vn -0.2153 -0.3468 -0.9129
vn 0.2024 0.8816 0.4264
vn -0.6387 -0.1529 -0.7541
vn -0.5325 -0.1834 0.8263
vn 0.4697 -0.4488 0.7602
vn 0.8514 -0.3766 -0.3650
vn 0.4270 -0.1825 -0.8857
vn -0.2442 0.8987 -0.3643
vn -0.8694 0.2428 0.4303
vn 0.4136 0.2411 0.8780
vn -0.4689 -0.8628 -0.1892
vn 0.3631 0.9126 0.1881
vn 0.7149 0.6991 0.0121
vn -0.9869 0.1597 -0.0214
vn -0.5586 -0.4501 0.6967
vn -0.9490 -0.2302 -0.2154
vn -0.5888 0.4337 -0.6821
vn -0.3676 0.5079 0.7790
vn 0.4466 0.8920 0.0707
vn 0.7985 0.4645 -0.3830
vn -0.6988 -0.0255 0.7149
vn 0.7997 0.5185 -0.3029
vn -0.9630 -0.0218 0.2685
vn 0.4367 0.4339 -0.7881
vn -0.8376 0.5294 -0.1351
vn -0.0174 0.9992 0.0358
vn -0.1734 -0.0323 0.9843
vn 0.9186 -0.3860 0.0851
vn -0.2063 -0.3842 -0.8999
vn -0.4455 -0.3565 -0.8213
vn -0.5593 -0.3855 0.7339
vn 0.3006 0.8144 -0.4964
vn -0.3068 0.2809 0.9094
vn 0.5665 -0.7210 -0.3990
vn -0.6510 0.1602 -0.7420
vn 0.0306 -0.8630 0.5043
vn -0.9300 -0.3662 -0.0305
vn 0.1441 0.9160 -0.3744
vn 0.5401 -0.8055 0.2437
vn 0.4322 -0.7387 0.5172
vn 0.9132 -0.3923 0.1103
vn -0.5177 0.8439 -0.1410
vn 0.1813 -0.3925 0.9017
vn 0.2127 -0.1073 0.9712
vn -0.6889 -0.1475 0.7097
vn 0.4626 -0.8216 -0.3331
vn -0.8868 0.4476 0.1150
vn -0.4415 0.8363 -0.3251
vn -0.9526 0.1616 0.2578
vn 0.1876 0.2611 -0.9469
vn 0.9176 -0.1795 0.3546
vn 0.2539 -0.3679 0.8946
vn 0.2273 -0.7023 0.6746
vn 0.9971 0.0656 0.0394
vn 0.2176 0.2945 0.9306
vn 0.6031 -0.6693 -0.4339
vn 0.7316 0.2202 0.6452
vn -0.3907 0.9093 -0.1433
vn 0.8066 -0.2352 -0.5423
vn -0.6190 0.1486 0.7712
vn 0.5174 -0.8552 -0.0301
vn 0.7637 -0.2026 -0.6129
vn 0.6059 0.7016 0.3749
vn -0.9414 0.2553 -0.2204
vn -0.3341 -0.2153 0.9176
vn 0.3032 0.1163 0.9458
vn -0.2985 -0.7613 0.5756
vn 0.9744 0.1854 0.1274
vn 0.0644 0.2102 0.9755
vn -0.9332 0.2688 0.2386
vn 0.3918 0.7854 0.4791
vn -0.8333 0.4311 -0.3461
vn 0.3133 0.8960 -0.3148
vn -0.4899 -0.7485 -0.4469
vn -0.4215 0.0267 0.9065
vn -0.1536 0.9375 0.3122
vn -0.9399 0.1764 -0.2925
vn -0.5234 -0.4477 0.7250
vn -0.2823 -0.1614 -0.9457
vn -0.0009 -1.0000 -0.0002
vn 0.3626 0.8838 0.2956
vn -0.7933 0.2502 -0.5551
vn 0.4532 0.4855 0.7476
vn -0.0406 0.9990 0.0179
vn 0.4209 -0.2958 -0.8575
vn -0.3772 0.7586 -0.5313
vn -0.2680 -0.8766 -0.3997
vn -0.3955 0.4927 -0.7751
vn 0.9654 0.1792 -0.1892
vn -0.9919 -0.1257 -0.0203
vn -0.8705 -0.1411 0.4715
vn 0.3948 0.9087 0.1354
vn -0.1756 -0.7745 0.6077
vn -0.6827 -0.2932 -0.6693
vn 0.3938 0.9074 -0.1466
vn 0.3163 -0.1784 -0.9317
vn -0.7287 -0.6829 0.0510
vn 0.0194 0.7406 0.6716
vn -0.6997 0.0636 -0.7116
vn -0.3243 -0.8721 -0.3664
vn -0.5470 0.8219 -0.1588
vn 0.8432 -0.3583 -0.4009
vn -0.3054 -0.8345 0.4587
vn -0.0134 -0.5254 0.8508
vn 0.3241 -0.3338 -0.8852
vn -0.6897 -0.1495 0.7085
vn -0.3180 0.9421 -0.1061
vn 0.7992 0.4316 -0.4183
vn 0.5675 0.0216 0.8231
vn -0.5921 0.1779 0.7860
vn -0.6764 0.3328 0.6571
vn 0.7605 -0.5802 -0.2916
vn -0.8341 -0.4372 -0.3363
vn 0.4170 -0.0203 0.9087
vn 0.5962 0.8028 0.0052
vn 0.8372 0.0284 0.5462
vn 0.3900 0.9205 -0.0234
vn -0.2112 0.9049 0.3696
vn -0.6313 0.1256 0.7653
vn 0.9121 0.1673 -0.3742
vn 0.5261 -0.2872 0.8004
vn -0.1189 -0.8694 -0.4795
vn 0.7832 0.5626 0.2648
vn -0.2224 -0.4527 0.8635
vn 0.7523 -0.5317 0.3890
vn 0.4677 -0.7038 -0.5348
vn -0.3057 0.9031 0.3016
vn -0.1806 0.1424 0.9732
vn -0.5904 0.5174 0.6194
vn -0.4408 -0.5068 -0.7408
vn -0.0009 0.9385 0.3454
vn 0.2341 -0.5317 -0.8140
vn -0.9203 0.3102 -0.2386
vn -0.0304 -0.7917 0.6101
vn 0.4976 0.2954 -0.8155
vn 0.8303 0.4959 -0.2544
vn 0.2196 0.3370 0.9155
vn -0.4953 -0.4942 0.7145
vn -0.6387 0.7694 -0.0096
vn 0.3768 0.9045 -0.1998
vn -0.8486 0.0431 -0.5272
vn -0.9393 -0.2508 -0.2343
vn -0.0729 0.6606 0.7472
vn 0.2356 0.1430 -0.9613
vn 0.0586 0.1508 -0.9868
vn 0.3361 0.1636 -0.9275
vn -0.5766 0.1424 0.8045
vn -0.0088 0.9998 0.0153
vn 0.2892 0.8616 -0.4171
vn -0.0381 0.9989 0.0256
vn -0.7367 0.3369 -0.5863
vn 0.4555 -0.8477 -0.2720
vn 0.3537 0.0672 -0.9329
vn 0.2682 -0.8913 -0.3657
vn -0.0979 -0.4486 -0.8883
vn -0.2384 -0.0185 -0.9710
vn 0.7917 -0.1928 0.5797
vn -0.0021 -0.8339 -0.5519
vn -0.1129 0.6493 0.7521
vn -0.6751 -0.6593 0.3311
vn 0.4099 0.2364 0.8810
vn 0.2518 0.2194 0.9426
vn -0.4285 -0.7974 0.4249
vn 0.4734 -0.8541 0.2154
vn 0.2679 -0.5211 0.8104
vn 0.2553 0.2184 -0.9419
vn -0.8986 -0.3928 0.1957
vn 0.1127 0.2898 -0.9504
vn 0.5309 0.4318 0.7292
vn 0.4674 -0.8614 0.1990
vn 0.2116 -0.8204 -0.5312
vn 0.2370 -0.3714 -0.8977
vn -0.7828 -0.5737 -0.2411
vn -0.3838 0.5687 -0.7275
vn -0.1997 -0.5301 -0.8241
vn 0.9568 0.2902 -0.0150
vn 0.9648 -0.2599 -0.0394
vn -0.8010 0.2503 -0.5438
vn -0.2694 0.3667 0.8904
vn 0.3809 0.4334 0.8168
vn -0.2591 0.1722 0.9504
vn 0.2147 0.2365 -0.9476
vn -0.2698 0.9628 -0.0175
vn 0.8887 0.3709 0.2695
vn 0.3884 0.2378 0.8903
vn 0.0068 0.9998 0.0192
vn -0.7897 -0.3054 0.5321
vn -0.5735 0.2418 -0.7828
vn -0.1017 0.4299 -0.8971
vn 0.3563 0.7990 0.4845
vn 0.1548 0.8154 0.5577
vn -0.2664 -0.9392 0.2168
vn 0.8886 -0.3339 0.3146
vn -0.9295 0.3614 0.0733
vn -0.3917 -0.8114 -0.4337
vn 0.0189 0.1266 -0.9918
vn 0.0717 -0.0034 -0.9974
vn -0.9281 0.0025 -0.3723
vn 0.7233 -0.2129 0.6569
vn -0.4518 -0.2010 0.8692
vn -0.5204 0.1853 0.8335
vn 0.4515 -0.8544 0.2572
vn 0.9902 0.0495 0.1309
vn 0.0392 0.5943 -0.8033
vn -0.6794 -0.0396 0.7327
vn 0.5996 0.4817 -0.6391
vn 0.5761 0.7693 0.2763
vn 0.8444 0.4388 0.3074
vn 0.2414 0.9053 0.3495
vn 0.1697 -0.5687 0.8048
vn 0.3556 -0.8608 0.3641
vn -0.4493 -0.8921 0.0476
vn -0.7227 0.1947 0.6632
vn -0.8945 -0.4384 -0.0880
vn -0.7444 -0.6677 0.0042
vn -0.5029 0.3783 -0.7772
vn -0.0772 -0.8558 0.5114
vn 0.7092 0.4361 0.5540
vn 0.8627 0.1893 0.4689
vn 0.5583 -0.1018 -0.8234
vn 0.6803 0.1738 0.7121
vn 0.6555 0.4479 0.6081
vn -0.0467 -0.8257 0.5622
vn -0.9214 0.2513 0.2963
vn -0.9551 0.2398 0.1741
vn 0.0048 0.9997 0.0225
vn 0.0050 0.9998 -0.0212
vn -0.3236 0.2314 -0.9175
vn 0.1952 0.9682 -0.1567
vn -0.0760 -0.9954 -0.0591
vn -0.3453 0.8902 -0.2971
vn 0.5773 -0.3661 -0.7299
vn -0.5787 -0.5520 -0.6003
vn 0.0501 0.2249 -0.9731
vn 0.5568 0.8162 0.1546
vn 0.5750 -0.3707 0.7293
vn 0.4289 -0.1801 0.8852
vn 0.2219 -0.5113 -0.8303
vn -0.4035 0.8974 -0.1787
vn 0.8656 0.4352 -0.2477
vn 0.9977 0.0375 -0.0567
vn -0.5610 -0.7581 -0.3325
vn -0.6139 -0.7749 -0.1505
vn -0.5641 0.4388 0.6994
vn -0.2149 -0.8059 -0.5517
vn -0.5739 0.1821 -0.7984
vn -0.4834 0.7588 0.4365
vn 0.9425 0.3085 -0.1289
vn -0.0295 0.7870 0.6163
vn -0.4789 -0.8776 0.0200
vn -0.0607 0.2190 -0.9738
vn 0.5841 0.1921 -0.7886
vn 0.6600 -0.7433 0.1091
vn 0.0431 0.9014 -0.4308
vn -0.0247 0.9996 -0.0151
vn 0.0101 0.9998 -0.0144
vn 0.8825 0.1215 0.4543
vn 0.9780 0.1970 0.0687
vn -0.8021 0.2276 -0.5521
vn -0.8999 -0.1680 -0.4024
vn -0.4956 0.7714 0.3991
vn -0.3305 0.9100 0.2505
vn -0.4210 0.8990 -0.1207
vn -0.1459 -0.3892 0.9095
vn -0.0331 -0.7722 -0.6345
vn 0.2018 -0.8833 0.4232
vn 0.0123 -0.3702 0.9289
vn 0.6814 -0.2283 0.6953
vn 0.6092 -0.0019 -0.7930
vn 0.8825 0.4344 -0.1803
vn -0.3603 0.7786 -0.5138
vn -0.4589 -0.8636 0.2089
vn -0.1566 0.9267 -0.3416
vn -0.6218 0.6460 0.4428
vn -0.0000 -1.0000 -0.0000
vn -0.8253 -0.1761 0.5365
vn -0.7813 0.5730 0.2477
vn -0.7363 0.2827 -0.6148
vn -0.8345 0.0130 -0.5509
vn 0.5805 0.2171 0.7848
vn 0.5201 0.3922 0.7587
vn 0.7209 0.5719 -0.3914
vn 0.4289 0.8236 0.3711
vn -0.3589 0.0040 -0.9334
vn 0.0210 -0.9998 0.0005
vn 0.8942 0.2044 0.3982
vn 0.6958 0.4357 -0.5710
vn 0.0804 0.9134 0.3991
vn -0.0095 -0.9010 -0.4337
vn -0.5450 0.8236 0.1570
vn 0.7396 -0.1575 -0.6543
vn 0.4140 0.8697 0.2687
vn -0.1970 0.1486 -0.9691
vn 0.0714 -0.3816 -0.9216
vn 0.9659 -0.2551 -0.0452
vn 0.7807 0.0807 -0.6196
vn 0.8829 0.1308 -0.4511
vn -0.9881 -0.0095 -0.1537
vn 0.9293 0.2320 0.2873
vn 0.9780 -0.1779 0.1090
vn 0.9433 -0.1553 -0.2933
vn -0.5259 0.4342 -0.7313
vn -0.7311 0.6372 0.2440
vn -0.3554 -0.8813 0.3115
vn -0.2989 -0.7988 0.5220
vn 0.4910 -0.8528 -0.1781
vn -0.9807 0.0561 0.1874
vn -0.1240 -0.0226 0.9920
vn -0.9848 0.1726 -0.0216
vn 0.0679 0.1419 -0.9876
vn -0.7954 -0.4185 0.4384
vn 0.9297 0.3056 0.2056
vn -0.9218 0.0559 0.3835
vn 0.0874 0.9769 0.1948
vn -0.9555 0.0558 -0.2898
vn 0.8986 0.4358 0.0511
vn 0.4123 0.4394 0.7980
vn -0.4197 0.8879 0.1884
vn -0.0550 -0.8975 -0.4375
vn 0.2240 0.9176 -0.3284
vn 0.0813 -0.6812 0.7275
vn 0.6159 -0.7854 -0.0613
vn -0.1924 -0.0874 0.9774
vn -0.2994 0.4414 0.8459
vn -0.7764 0.4879 -0.3990
vn -0.4786 -0.1674 0.8619
vn 0.9672 -0.2252 -0.1172
vn -0.8890 -0.0953 -0.4478
vn 0.8746 -0.3610 0.3236
vn 0.8273 0.1855 -0.5302
vn 0.5231 0.5447 0.6555
vn 0.8841 0.4607 0.0787
vn -0.3170 0.9045 -0.2853
vn 0.9005 -0.0279 0.4340
vn -0.8649 0.2880 0.4112
vn 0.4257 0.6525 0.6270
vn 0.9275 -0.3738 -0.0096
vn -0.2432 -0.0000 0.9700
vn 0.5799 0.2700 0.7686
vn 0.2250 0.1568 0.9616
vn 0.9298 0.0005 -0.3681
vn 0.1086 0.4425 -0.8902
vn -0.0549 -0.7319 -0.6792
vn -0.8694 -0.3175 -0.3787
vn -0.9974 -0.0432 0.0584
vt 0.607360 0.413336
vt 0.583253 0.440122
vt 0.580917 0.412359
vt 0.186507 0.698195
vt 0.192125 0.716964
vt 0.187123 0.723713
vt 0.008109 0.196850
vt 0.001749 0.170384
vt 0.002520 0.132565
vt 0.792697 0.936097
vt 0.797709 0.933123
vt 0.798258 0.947242
vt 0.754423 0.925708
vt 0.748967 0.948607
vt 0.747913 0.919856
vt 0.750052 0.813019
vt 0.800563 0.851982
vt 0.770182 0.838986
vt 0.847143 0.875480
vt 0.848183 0.893279
vt 0.838883 0.894257
vt 0.894099 0.173341
vt 0.913588 0.185134
vt 0.890018 0.199547
vt 0.814043 0.925930
vt 0.807007 0.914139
vt 0.813823 0.894139
vt 0.804322 0.927852
vt 0.800856 0.908531
vt 0.285150 0.754761
vt 0.289930 0.749618
vt 0.291168 0.763728
vt 0.425821 0.831007
vt 0.434891 0.849712
vt 0.426382 0.868812
vt 0.933747 0.724255
vt 0.964529 0.720565
vt 0.963382 0.749848
vt 0.432800 0.886882
vt 0.433124 0.873133
vt 0.734980 0.239242
vt 0.724564 0.232879
vt 0.734968 0.223350
vt 0.949666 0.478979
vt 0.978859 0.468741
vt 0.978846 0.488804
vt 0.780229 0.387627
vt 0.762615 0.406467
vt 0.767243 0.327898
vt 0.180871 0.767788
vt 0.188835 0.751867
vt 0.186830 0.787228
vt 0.610337 0.718899
vt 0.607786 0.743790
vt 0.591269 0.740155
vt 0.711244 0.274447
vt 0.714872 0.274625
vt 0.711244 0.280502
vt 0.296992 0.401374
vt 0.297008 0.388487
vt 0.297021 0.401374
vt 0.701217 0.716204
vt 0.658335 0.716084
vt 0.666425 0.703930
vt 0.579266 0.447182
vt 0.647852 0.204759
vt 0.665900 0.207831
vt 0.665893 0.220341
vt 0.647609 0.231459
vt 0.466059 0.560243
vt 0.435380 0.554826
vt 0.485634 0.545685
vt 0.685657 0.241765
vt 0.702982 0.244231
vt 0.703761 0.271750
vt 0.733700 0.681903
vt 0.738040 0.693580
vt 0.733218 0.703218
vt 0.687237 0.725663
vt 0.968554 0.728825
vt 0.972673 0.743253
vt 0.969802 0.768316
vt 0.534150 0.511144
vt 0.558051 0.473616
vt 0.557352 0.493382
vt 0.223426 0.784959
vt 0.194375 0.796626
vt 0.194851 0.776864
vt 0.786101 0.932997
vt 0.781266 0.911850
vt 0.787505 0.895075
vt 0.927268 0.422245
vt 0.892804 0.405458
vt 0.915296 0.409804
vt 0.781163 0.894639
vt 0.823133 0.883530
vt 0.834070 0.879906
vt 0.828882 0.893874
vt 0.774883 0.888312
vt 0.974311 0.562362
vt 0.980468 0.572498
vt 0.975517 0.582260
vt 0.063100 0.679433
vt 0.103781 0.686338
vt 0.081529 0.687021
vt 0.748518 0.751072
vt 0.741581 0.792872
vt 0.741097 0.766976
vt 0.686035 0.206648
vt 0.703877 0.221063
vt 0.192858 0.780299
vt 0.194136 0.734427
vt 0.193761 0.757793
vt 0.182851 0.910428
vt 0.186837 0.869283
vt 0.187821 0.918422
vt 0.293083 0.838323
vt 0.290937 0.878494
vt 0.288364 0.837217
vt 0.286143 0.784549
vt 0.291107 0.802037
vt 0.300156 0.611441
vt 0.301322 0.584988
vt 0.429920 0.632353
vt 0.580469 0.382126
vt 0.607227 0.383613
vt 0.435673 0.776528
vt 0.439555 0.783688
vt 0.437927 0.812763
vt 0.803002 0.363819
vt 0.804134 0.325692
vt 0.816664 0.323555
vt 0.801121 0.880773
vt 0.805319 0.887027
vt 0.741796 0.052154
vt 0.718148 0.050321
vt 0.739886 0.041086
vt 0.942659 0.442947
vt 0.943183 0.455938
vt 0.800226 0.860581
vt 0.805511 0.867594
vt 0.964724 0.612438
vt 0.965567 0.635816
vt 0.957956 0.618215
vt 0.781224 0.320762
vt 0.789985 0.301123
vt 0.964485 0.578495
vt 0.969707 0.579830
vt 0.288687 0.675760
vt 0.290500 0.654286
vt 0.291404 0.694903
vt 0.792942 0.879401
vt 0.846036 0.237892
vt 0.855084 0.237169
vt 0.839754 0.253309
vt 0.818471 0.877590
vt 0.811116 0.859294
vt 0.819920 0.860875
vt 0.808873 0.875950
vt 0.742701 0.960971
vt 0.751742 0.969443
vt 0.705896 0.211557
vt 0.970788 0.619576
vt 0.963115 0.008845
vt 0.961952 0.016929
vt 0.954559 0.014768
vt 0.285228 0.884701
vt 0.286001 0.858025
vt 0.127054 0.458891
vt 0.082059 0.467532
vt 0.100446 0.454323
vt 0.430941 0.714028
vt 0.457132 0.707845
vt 0.457522 0.721391
vt 0.893308 0.607713
vt 0.885602 0.630655
vt 0.868263 0.643998
vt 0.868088 0.596866
vt 0.131996 0.350663
vt 0.134487 0.332116
vt 0.160683 0.357143
vt 0.152572 0.371012
vt 0.160002 0.631806
vt 0.181695 0.635361
vt 0.167608 0.657389
vt 0.281483 0.833765
vt 0.279122 0.819800
vt 0.283763 0.820196
vt 0.735620 0.207012
vt 0.727693 0.211216
vt 0.725806 0.202379
vt 0.286595 0.898903
vt 0.898969 0.637651
vt 0.913514 0.604709
vt 0.952748 0.620719
vt 0.736017 0.468140
vt 0.737407 0.428121
vt 0.933442 0.763399
vt 0.963460 0.804673
vt 0.958375 0.654447
vt 0.740737 0.374800
vt 0.736087 0.377745
vt 0.792005 0.905155
vt 0.725024 0.250084
vt 0.375074 0.549711
vt 0.367296 0.537243
vt 0.387829 0.546517
vt 0.963753 0.873260
vt 0.934095 0.886981
vt 0.932607 0.858408
vt 0.041144 0.350518
vt 0.027401 0.378012
vt 0.006546 0.361421
vt 0.022211 0.332169
vt 0.146519 0.422673
vt 0.167423 0.410372
vt 0.156215 0.437464
vt 0.301665 0.637962
vt 0.432731 0.825286
vt 0.425791 0.797687
vt 0.181499 0.852451
vt 0.181773 0.823208
vt 0.187226 0.826329
vt 0.152678 0.000132
vt 0.180068 0.005873
vt 0.114773 0.004236
vt 0.974933 0.691499
vt 0.974080 0.661153
vt 0.979299 0.680983
vt 0.197035 0.749594
vt 0.204051 0.746646
vt 0.980198 0.659781
vt 0.773086 0.918631
vt 0.768727 0.938548
vt 0.761405 0.933023
vt 0.588036 0.123718
vt 0.586195 0.156268
vt 0.584335 0.106820
vt 0.941754 0.078920
vt 0.953677 0.109462
vt 0.935390 0.098083
vt 0.896323 0.886802
vt 0.925926 0.845723
vt 0.926890 0.895828
vt 0.260627 0.466662
vt 0.283216 0.517178
vt 0.269305 0.521289
vt 0.818922 0.298555
vt 0.797073 0.288794
vt 0.685241 0.277981
vt 0.666217 0.268148
vt 0.684504 0.259678
vt 0.824319 0.865155
vt 0.834270 0.860631
vt 0.426313 0.775564
vt 0.430874 0.792603
vt 0.736237 0.248853
vt 0.730194 0.252801
vt 0.878817 0.645184
vt 0.593648 0.210230
vt 0.612929 0.204871
vt 0.600056 0.234444
vt 0.723983 0.734686
vt 0.707658 0.740595
vt 0.455574 0.618904
vt 0.457159 0.647035
vt 0.754410 0.958388
vt 0.759725 0.296553
vt 0.275463 0.836515
vt 0.937595 0.487129
vt 0.928412 0.503330
vt 0.917014 0.507580
vt 0.982495 0.772835
vt 0.979786 0.832325
vt 0.979315 0.800023
vt 0.717768 0.284465
vt 0.716354 0.280986
vt 0.717768 0.280028
vt 0.966056 0.085155
vt 0.966631 0.049297
vt 0.996734 0.073050
vt 0.024839 0.411281
vt 0.001673 0.410113
vt 0.236071 0.348031
vt 0.217947 0.338796
vt 0.224437 0.329157
vt 0.742152 0.935975
vt 0.966181 0.655956
vt 0.204194 0.856848
vt 0.219631 0.857521
vt 0.950433 0.591779
vt 0.954467 0.599748
vt 0.275606 0.432667
vt 0.249430 0.403937
vt 0.267177 0.348031
vt 0.564332 0.207823
vt 0.580281 0.135410
vt 0.576000 0.181319
vt 0.976724 0.736990
vt 0.975171 0.710753
vt 0.970254 0.706403
vt 0.212690 0.548210
vt 0.204961 0.557504
vt 0.201633 0.547071
vt 0.840495 0.859820
vt 0.845808 0.860456
vt 0.865715 0.213435
vt 0.867148 0.177747
vt 0.927455 0.036086
vt 0.880051 0.070272
vt 0.880581 0.038994
vt 0.291133 0.629180
vt 0.659385 0.865983
vt 0.667494 0.850397
vt 0.688705 0.861195
vt 0.042183 0.373651
vt 0.039646 0.388429
vt 0.191903 0.692177
vt 0.965013 0.672689
vt 0.825797 0.558413
vt 0.831318 0.702274
vt 0.791294 0.702056
vt 0.973964 0.606413
vt 0.980487 0.609527
vt 0.975835 0.628146
vt 0.065542 0.302042
vt 0.086865 0.298997
vt 0.059513 0.322784
vt 0.075916 0.662112
vt 0.980803 0.642502
vt 0.296981 0.413888
vt 0.297010 0.413888
vt 0.296967 0.425901
vt 0.642237 0.221629
vt 0.629637 0.210588
vt 0.636545 0.206566
vt 0.781972 0.503939
vt 0.804604 0.446591
vt 0.815902 0.504082
vt 0.927351 0.919978
vt 0.895053 0.906224
vt 0.236582 0.316730
vt 0.253380 0.334098
vt 0.191034 0.607612
vt 0.171718 0.603292
vt 0.218170 0.362408
vt 0.233645 0.531826
vt 0.263249 0.542040
vt 0.238357 0.551605
vt 0.606070 0.442378
vt 0.498609 0.573498
vt 0.505141 0.593894
vt 0.482080 0.573577
vt 0.978119 0.756085
vt 0.980540 0.729193
vt 0.214949 0.518670
vt 0.194175 0.521834
vt 0.201205 0.513593
vt 0.214884 0.310849
vt 0.645060 0.266204
vt 0.644792 0.281080
vt 0.643371 0.269914
vt 0.779728 0.558361
vt 0.953257 0.172040
vt 0.951243 0.189047
vt 0.948333 0.169781
vt 0.885679 0.584424
vt 0.879424 0.558725
vt 0.899103 0.572003
vt 0.487559 0.590132
vt 0.206624 0.528109
vt 0.786325 0.867460
vt 0.781059 0.874114
vt 0.735035 0.644056
vt 0.738951 0.655980
vt 0.527825 0.671091
vt 0.544871 0.609084
vt 0.553643 0.617771
vt 0.515977 0.738376
vt 0.487268 0.784599
vt 0.505416 0.686218
vt 0.808025 0.940164
vt 0.573382 0.570512
vt 0.576194 0.588668
vt 0.571692 0.600776
vt 0.204414 0.843610
vt 0.198934 0.855729
vt 0.197417 0.842192
vt 0.543263 0.720266
vt 0.917596 0.071621
vt 0.753639 0.183259
vt 0.775576 0.161941
vt 0.760179 0.179563
vt 0.107903 0.664692
vt 0.846594 0.419541
vt 0.842601 0.440604
vt 0.830276 0.459984
vt 0.829066 0.441735
vt 0.586205 0.018721
vt 0.585554 0.004356
vt 0.749031 0.879712
vt 0.742159 0.889070
vt 0.743357 0.864859
vt 0.974573 0.786253
vt 0.946737 0.304622
vt 0.977786 0.294257
vt 0.978471 0.323043
vt 0.742801 0.102134
vt 0.742939 0.131632
vt 0.717680 0.124493
vt 0.454183 0.668842
vt 0.457435 0.684630
vt 0.296498 0.306317
vt 0.297038 0.297699
vt 0.297038 0.322786
vt 0.885879 0.412213
vt 0.932778 0.445429
vt 0.922727 0.429552
vt 0.938020 0.000431
vt 0.955734 0.001720
vt 0.880188 0.022701
vt 0.545035 0.935795
vt 0.563653 0.791884
vt 0.570725 0.935831
vt 0.946554 0.468979
vt 0.947536 0.443665
vt 0.841995 0.906453
vt 0.835349 0.899814
vt 0.221557 0.834899
vt 0.222812 0.818776
vt 0.241865 0.809639
vt 0.724357 0.228776
vt 0.724319 0.209056
vt 0.251339 0.694748
vt 0.221791 0.695456
vt 0.232002 0.656733
vt 0.907511 0.215451
vt 0.609248 0.584076
vt 0.737013 0.576053
vt 0.736126 0.609932
vt 0.608222 0.610239
vt 0.575121 0.625483
vt 0.575032 0.651389
vt 0.270171 0.065921
vt 0.295862 0.143994
vt 0.294193 0.174431
vt 0.838848 0.473688
vt 0.933620 0.471361
vt 0.922114 0.491600
vt 0.712872 0.845983
vt 0.701697 0.835909
vt 0.162971 0.388791
vt 0.758420 0.501063
vt 0.132070 0.443715
vt 0.037921 0.394307
vt 0.894952 0.846062
vt 0.895722 0.808492
vt 0.784506 0.439190
vt 0.564663 0.567927
vt 0.548198 0.585612
vt 0.545794 0.566675
vt 0.057093 0.356056
vt 0.053053 0.367011
vt 0.236141 0.435261
vt 0.911192 0.515379
vt 0.893514 0.517239
vt 0.820219 0.912968
vt 0.527841 0.606405
vt 0.508911 0.617670
vt 0.847716 0.164886
vt 0.856363 0.185759
vt 0.829163 0.156705
vt 0.180872 0.718458
vt 0.073459 0.337204
vt 0.997629 0.033748
vt 0.105246 0.316081
vt 0.863104 0.200676
vt 0.877699 0.507850
vt 0.881278 0.509376
vt 0.853405 0.497466
vt 0.868712 0.518162
vt 0.854671 0.509258
vt 0.683505 0.228932
vt 0.666008 0.220560
vt 0.683654 0.206557
vt 0.365848 0.304329
vt 0.404350 0.297742
vt 0.366881 0.313430
vt 0.263045 0.569996
vt 0.244056 0.570431
vt 0.529106 0.576723
vt 0.726715 0.786397
vt 0.737443 0.766762
vt 0.737611 0.805158
vt 0.255704 0.628353
vt 0.396376 0.277591
vt 0.348918 0.252518
vt 0.372457 0.256935
vt 0.400731 0.267869
vt 0.724206 0.259273
vt 0.706651 0.263650
vt 0.706198 0.238548
vt 0.970599 0.567055
vt 0.967957 0.558792
vt 0.219231 0.572381
vt 0.717419 0.095248
vt 0.743903 0.070719
vt 0.801001 0.147317
vt 0.815054 0.144904
vt 0.430868 0.685340
vt 0.301825 0.706073
vt 0.301527 0.672881
vt 0.964322 0.059278
vt 0.964069 0.085245
vt 0.023071 0.229051
vt 0.070300 0.274597
vt 0.819836 0.940339
vt 0.875000 0.071098
vt 0.850893 0.893876
vt 0.857294 0.905354
vt 0.852166 0.907960
vt 0.768307 0.915270
vt 0.760228 0.900216
vt 0.109067 0.449291
vt 0.209485 0.284427
vt 0.186786 0.292988
vt 0.234922 0.269376
vt 0.607100 0.638813
vt 0.571581 0.878273
vt 0.572842 0.836469
vt 0.575871 0.873122
vt 0.858105 0.211638
vt 0.736877 0.339645
vt 0.979136 0.710469
vt 0.981449 0.703290
vt 0.875870 0.033153
vt 0.955545 0.582541
vt 0.303965 0.565943
vt 0.429190 0.609251
vt 0.767888 0.240139
vt 0.762744 0.244120
vt 0.750037 0.220305
vt 0.742045 0.918806
vt 0.376413 0.767311
vt 0.333658 0.911303
vt 0.328281 0.767402
vt 0.740334 0.317533
vt 0.218873 0.456950
vt 0.239365 0.518667
vt 0.272247 0.677135
vt 0.254961 0.740893
vt 0.977194 0.720486
vt 0.589155 0.085912
vt 0.006475 0.105091
vt 0.027150 0.066764
vt 0.180978 0.738471
vt 0.905204 0.415403
vt 0.581416 0.653152
vt 0.605956 0.653295
vt 0.795722 0.853522
vt 0.754458 0.206723
vt 0.043530 0.429270
vt 0.063935 0.446096
vt 0.217468 0.018843
vt 0.753650 0.874294
vt 0.751022 0.859262
vt 0.827049 0.707340
vt 0.873005 0.730732
vt 0.887857 0.766788
vt 0.998592 0.111711
vt 0.997230 0.183054
vt 0.996093 0.138530
vt 0.894406 0.156146
vt 0.836520 0.878577
vt 0.750349 0.900192
vt 0.611865 0.283101
vt 0.616259 0.276616
vt 0.618157 0.283101
vt 0.769414 0.869958
vt 0.771735 0.888184
vt 0.767825 0.892894
vt 0.242412 0.783188
vt 0.857484 0.886022
vt 0.623501 0.228274
vt 0.642826 0.243100
vt 0.044580 0.475649
vt 0.030386 0.465423
vt 0.171787 0.570800
vt 0.181578 0.543600
vt 0.192437 0.574014
vt 0.100837 0.223819
vt 0.145868 0.238331
vt 0.183179 0.231736
vt 0.215671 0.207835
vt 0.235029 0.172436
vt 0.235011 0.129052
vt 0.213605 0.088198
vt 0.259056 0.068035
vt 0.281611 0.116270
vt 0.276333 0.199038
vt 0.239326 0.252750
vt 0.185765 0.279682
vt 0.107367 0.279510
vt 0.059392 0.255365
vt 0.026485 0.213680
vt 0.068232 0.187589
vt 0.187274 0.018807
vt 0.193117 0.020573
vt 0.213689 0.029918
vt 0.230760 0.040134
vt 0.177132 0.064915
vt 0.125666 0.063957
vt 0.082445 0.089647
vt 0.061355 0.136461
vt 0.010163 0.144630
vt 0.030551 0.077163
vt 0.082019 0.028753
vt 0.132723 0.012064
vt 0.591222 0.255252
vt 0.584940 0.243678
vt 0.935335 0.044407
vt 0.963615 0.037111
vt 0.316192 0.071620
vt 0.322388 0.081294
vt 0.310269 0.114731
vt 0.307976 0.149868
vt 0.299950 0.114290
vt 0.647848 0.279816
vt 0.647363 0.257596
vt 0.665841 0.251209
vt 0.585524 0.228716
vt 0.418006 0.911440
vt 0.383766 0.911251
vt 0.414255 0.767487
vt 0.965126 0.910791
vt 0.933430 0.910387
vt 0.276101 0.350137
vt 0.309258 0.194566
vt 0.322642 0.203597
vt 0.339388 0.228833
vt 0.327673 0.230810
vt 0.041823 0.398411
vt 0.835734 0.859219
vt 0.581732 0.588937
vt 0.047584 0.038337
vt 0.041962 0.044191
vt 0.778694 0.938802
vt 0.821856 0.899124
vt 0.633527 0.722880
vt 0.632982 0.708405
vt 0.223850 0.757062
vt 0.280527 0.783926
vt 0.303644 0.746711
vt 0.878868 0.234314
vt 0.866377 0.234836
vt 0.883437 0.219395
vt 0.159380 0.467287
vt 0.116613 0.487608
vt 0.858499 0.420900
vt 0.566274 0.175596
vt 0.570294 0.133150
vt 0.553118 0.207754
vt 0.866415 0.144597
vt 0.828528 0.143918
vt 0.828536 0.000103
vt 0.866628 0.000778
vt 0.862510 0.559267
vt 0.863888 0.703122
vt 0.281225 0.739525
vt 0.854316 0.871048
vt 0.862320 0.881799
vt 0.164435 0.554655
vt 0.140969 0.528090
vt 0.163402 0.519230
vt 0.931826 0.832859
vt 0.932251 0.796948
vt 0.459839 0.003236
vt 0.498511 0.014202
vt 0.527673 0.046200
vt 0.476658 0.017245
vt 0.119846 0.343682
vt 0.104326 0.332723
vt 0.539326 0.243904
vt 0.514599 0.248896
vt 0.926028 0.790045
vt 0.497027 0.935776
vt 0.453920 0.935813
vt 0.465059 0.791863
vt 0.416112 0.562353
vt 0.442014 0.565009
vt 0.566324 0.442494
vt 0.574651 0.439905
vt 0.137948 0.503751
vt 0.110509 0.515662
vt 0.305582 0.767290
vt 0.181548 0.940602
vt 0.578857 0.770793
vt 0.581482 0.754965
vt 0.771957 0.157063
vt 0.799641 0.152760
vt 0.538714 0.788169
vt 0.507156 0.786979
vt 0.584893 0.061500
vt 0.587691 0.037494
vt 0.718008 0.068570
vt 0.040376 0.639229
vt 0.028148 0.653320
vt 0.007502 0.627643
vt 0.022090 0.606320
vt 0.605287 0.262851
vt 0.633713 0.254939
vt 0.625620 0.264516
vt 0.529773 0.320290
vt 0.544805 0.335948
vt 0.536490 0.339735
vt 0.978818 0.559725
vt 0.981087 0.558214
vt 0.818775 0.418594
vt 0.606542 0.353051
vt 0.954416 0.641815
vt 0.876297 0.650249
vt 0.514413 0.791843
vt 0.755507 0.702597
vt 0.953493 0.022144
vt 0.963416 0.021459
vt 0.082019 0.018728
vt 0.062845 0.027887
vt 0.452193 0.605345
vt 0.481652 0.722473
vt 0.746544 0.486237
vt 0.752306 0.436133
vt 0.745588 0.504349
vt 0.778429 0.285068
vt 0.012373 0.547014
vt 0.040008 0.513403
vt 0.042039 0.537774
vt 0.944920 0.390737
vt 0.933619 0.397592
vt 0.940122 0.384755
vt 0.608523 0.542233
vt 0.738254 0.503856
vt 0.736477 0.523695
vt 0.606646 0.561062
vt 0.792751 0.860001
vt 0.979097 0.429440
vt 0.640949 0.850393
vt 0.566414 0.409741
vt 0.574556 0.405300
vt 0.322495 0.488711
vt 0.314819 0.494617
vt 0.301728 0.460557
vt 0.421913 0.286222
vt 0.430766 0.662137
vt 0.325662 0.338614
vt 0.337543 0.337579
vt 0.280930 0.806134
vt 0.948513 0.505889
vt 0.946816 0.500035
vt 0.341278 0.054963
vt 0.368180 0.019436
vt 0.375009 0.027251
vt 0.583888 0.560217
vt 0.508294 0.265203
vt 0.966925 0.018262
vt 0.552353 0.769795
vt 0.179501 0.343988
vt 0.193245 0.396756
vt 0.002800 0.582169
vt 0.023929 0.571718
vt 0.288139 0.710035
vt 0.946800 0.338983
vt 0.581285 0.627348
vt 0.738270 0.547899
vt 0.443501 0.791896
vt 0.879907 0.818164
vt 0.863737 0.796365
vt 0.951787 0.230997
vt 0.947833 0.239340
vt 0.895725 0.255713
vt 0.877440 0.254122
vt 0.966983 0.168018
vt 0.966713 0.118305
vt 0.779195 0.257922
vt 0.773896 0.254939
vt 0.796474 0.256081
vt 0.947668 0.420144
vt 0.041908 0.313799
vt 0.879025 0.665173
vt 0.108660 0.494548
vt 0.077441 0.517552
vt 0.074666 0.495813
vt 0.343752 0.517645
vt 0.337175 0.522504
vt 0.847832 0.711737
vt 0.277792 0.772085
vt 0.779668 0.862330
vt 0.723036 0.764277
vt 0.998370 0.005667
vt 0.994986 0.000000
vt 0.230931 0.742420
vt 0.201898 0.740820
vt 0.558889 0.587892
vt 0.555556 0.605107
vt 0.277356 0.655076
vt 0.774834 0.869212
vt 0.519419 0.536781
vt 0.963418 0.841990
vt 0.013051 0.442580
vt 0.581836 0.357349
vt 0.828429 0.477244
vt 0.838203 0.493302
vt 0.978017 0.375683
vt 0.554742 0.690508
vt 0.562651 0.746079
vt 0.996447 0.208583
vt 0.967752 0.201317
vt 0.848469 0.846189
vt 0.819834 0.856472
vt 0.153043 0.406205
vt 0.298461 0.166837
vt 0.948750 0.382369
vt 0.770812 0.289312
vt 0.585261 0.537796
vt 0.581261 0.545894
vt 0.241179 0.048376
vt 0.400814 0.015354
vt 0.405089 0.005081
vt 0.905307 0.374074
vt 0.912272 0.389155
vt 0.779661 0.716121
vt 0.808719 0.703290
vt 0.183508 0.435720
vt 0.936193 0.703290
vt 0.862263 0.863647
vt 0.430652 0.010192
vt 0.297800 0.431186
vt 0.298963 0.398856
vt 0.306881 0.407403
vt 0.276004 0.314635
vt 0.574899 0.933089
vt 0.571804 0.940446
vt 0.574052 0.912604
vt 0.719265 0.814301
vt 0.686174 0.275319
vt 0.257951 0.524419
vt 0.271798 0.526918
vt 0.747990 0.558991
vt 0.594680 0.765939
vt 0.128663 0.680246
vt 0.862300 0.905099
vt 0.615327 0.244197
vt 0.919901 0.071373
vt 0.254687 0.304705
vt 0.307600 0.453191
vt 0.315809 0.475831
vt 0.805940 0.943796
vt 0.969688 0.669775
vt 0.312692 0.175960
vt 0.726293 0.831236
vt 0.552222 0.077677
vt 0.536554 0.039656
vt 0.565624 0.079304
vt 0.829591 0.390414
vt 0.835504 0.402555
vt 0.827444 0.392609
vt 0.868933 0.148285
vt 0.876173 0.145171
vt 0.830282 0.907688
vt 0.895151 0.767156
vt 0.863375 0.388383
vt 0.841665 0.400560
vt 0.843474 0.364597
vt 0.854554 0.362949
vt 0.883087 0.382124
vt 0.860865 0.408711
vt 0.181448 0.884926
vt 0.074717 0.488714
vt 0.222592 0.623279
vt 0.187780 0.809450
vt 0.818950 0.255248
vt 0.825528 0.260318
vt 0.181892 0.794753
vt 0.564148 0.788819
vt 0.205049 0.836138
vt 0.194511 0.820325
vt 0.221746 0.832355
vt 0.321709 0.359623
vt 0.310099 0.364077
vt 0.291011 0.560868
vt 0.288094 0.541469
vt 0.291899 0.539051
vt 0.951092 0.654006
vt 0.897125 0.667278
vt 0.207783 0.655253
vt 0.795323 0.262073
vt 0.950826 0.212650
vt 0.201798 0.539516
vt 0.471889 0.785317
vt 0.493346 0.615894
vt 0.266780 0.519606
vt 0.756895 0.915723
vt 0.588840 0.188356
vt 0.717487 0.150462
vt 0.961842 0.106277
vt 0.925280 0.750911
vt 0.773905 0.927579
vt 0.972067 0.835748
vt 0.970451 0.809359
vt 0.976451 0.821624
vt 0.761235 0.871606
vt 0.736247 0.491215
vt 0.604815 0.845519
vt 0.587824 0.826400
vt 0.578932 0.801774
vt 0.603037 0.819458
vt 0.621672 0.840686
vt 0.619508 0.857282
vt 0.999919 0.071164
vt 0.958250 0.582644
vt 0.873172 0.663728
vt 0.495153 0.306774
vt 0.501020 0.300508
vt 0.931111 0.733130
vt 0.592766 0.789315
vt 0.181176 0.687754
vt 0.180684 0.700886
vt 0.156472 0.318350
vt 0.204089 0.310773
vt 0.203318 0.486709
vt 0.833328 0.826744
vt 0.785316 0.818858
vt 0.864956 0.765171
vt 0.846384 0.739408
vt 0.817684 0.728557
vt 0.788119 0.737405
vt 0.767144 0.770426
vt 0.290880 0.519805
vt 0.143049 0.296025
vt 0.097790 0.288276
vt 0.458861 0.281747
vt 0.459740 0.272410
vt 0.880458 0.238773
vt 0.871193 0.253032
vt 0.873222 0.241194
vt 0.744076 0.150246
vt 0.606322 0.330527
vt 0.737957 0.294268
vt 0.468402 0.288762
vt 0.450034 0.294101
vt 0.567918 0.376459
vt 0.554525 0.365818
vt 0.755868 0.882974
vt 0.926554 0.719906
vt 0.895138 0.733803
vt 0.847759 0.342484
vt 0.919887 0.355459
vt 0.921501 0.337965
vt 0.907499 0.314887
vt 0.891013 0.307520
vt 0.867714 0.311576
vt 0.853453 0.325060
vt 0.842410 0.320647
vt 0.829736 0.298320
vt 0.840341 0.286413
vt 0.868358 0.300783
vt 0.903624 0.301204
vt 0.933088 0.289333
vt 0.942830 0.299578
vt 0.929196 0.331764
vt 0.574660 0.821892
vt 0.574568 0.793462
vt 0.147927 0.672765
vt 0.135813 0.655157
vt 0.433040 0.274234
vt 0.782556 0.144067
vt 0.780023 0.000283
vt 0.122983 0.301089
vt 0.068273 0.690514
vt 0.116904 0.692411
vt 0.155898 0.717025
vt 0.176187 0.755243
vt 0.174304 0.803929
vt 0.152168 0.841010
vt 0.114263 0.862139
vt 0.068194 0.863333
vt 0.027190 0.839500
vt 0.002370 0.788467
vt 0.009292 0.738707
vt 0.032188 0.708561
vt 0.852166 0.858102
vt 0.857556 0.859179
vt 0.977194 0.803361
vt 0.439000 0.863504
vt 0.300147 0.911554
vt 0.300148 0.767630
vt 0.288259 0.198114
vt 0.272828 0.227760
vt 0.241179 0.048376
vt 0.230760 0.040134
vt 0.183532 0.017791
vt 0.132720 0.012070
vt 0.059395 0.255358
vt 0.898013 0.706938
vt 0.580024 0.335388
vt 0.884525 0.744327
vt 0.495649 0.551194
vt 0.811869 0.946724
vt 0.212971 0.418867
vt 0.299618 0.751727
vt 0.342649 0.037723
vt 0.871554 0.561750
vt 0.785745 0.946977
vt 0.971489 0.646860
vt 0.194486 0.836584
vt 0.750907 0.144767
vt 0.750907 0.000947
vt 0.187455 0.942700
s 0
f 90/1/1 113/2/1 22/3/1
f 323/4/2 294/5/2 343/6/2
f 5/7/3 10/8/3 9/9/3
f 471/10/4 361/11/4 356/12/4
f 279/13/5 268/14/5 299/15/5
f 3/16/6 71/17/6 72/18/6
f 474/19/7 416/20/7 423/21/7
f 326/22/8 125/23/8 318/24/8
f 441/25/9 375/26/9 118/27/9
f 337/28/10 361/11/10 463/29/10
f 15/30/11 301/31/11 298/32/11
f 184/33/12 8/34/12 7/35/12
f 475/36/13 29/37/13 121/38/13
f 108/39/14 7/35/14 2/40/14
f 6/41/15 53/42/15 340/43/15
f 391/44/16 364/45/16 291/46/16
f 402/47/17 385/48/17 83/49/17
f 153/50/18 150/51/18 104/52/18
f 335/53/19 307/54/19 306/55/19
f 104/56/20 106/57/20 107/58/20
f 482/59/21 61/60/21 62/61/21
f 92/62/22 18/63/22 22/64/22
f 22/3/23 113/2/23 92/65/23
f 41/66/24 467/67/24 37/68/24 38/69/24
f 96/70/25 98/71/25 23/72/25
f 67/73/26 112/74/26 69/75/26
f 124/76/27 369/77/27 134/78/27
f 92/62/28 94/79/28 18/63/28
f 308/80/29 311/81/29 321/82/29
f 459/83/30 248/84/30 241/85/30
f 177/86/31 53/87/31 57/88/31
f 131/89/32 145/90/32 146/91/32
f 151/92/33 137/93/33 215/94/33
f 149/95/34 146/91/34 145/90/34
f 393/96/35 310/97/35 406/98/35
f 148/99/36 149/95/36 145/90/36
f 115/100/37 162/101/37 161/102/37
f 162/103/38 165/104/38 161/105/38
f 155/106/39 8/107/39 156/108/39
f 127/109/40 111/110/40 67/73/40
f 150/51/41 100/111/41 104/52/41
f 150/51/42 294/112/42 100/113/42
f 477/114/43 274/115/43 189/116/43
f 112/74/44 67/73/44 111/110/44
f 196/117/45 223/118/45 182/119/45
f 182/119/46 204/120/46 202/121/46
f 286/122/47 245/123/47 443/124/47
f 16/125/48 89/126/48 90/1/48 22/3/48
f 230/127/49 129/128/49 155/129/49
f 295/130/50 65/131/50 292/132/50
f 138/133/51 137/134/51 463/29/51
f 328/135/52 345/136/52 306/137/52
f 118/138/53 375/139/53 151/92/53
f 138/133/54 215/140/54 137/141/54
f 213/142/55 228/143/55 214/144/55
f 65/131/56 50/145/56 438/146/56
f 213/142/57 108/147/57 72/148/57
f 98/149/58 199/150/58 99/151/58
f 215/140/59 138/133/59 203/152/59
f 119/153/60 117/154/60 208/155/60
f 117/156/61 215/157/61 208/158/61
f 215/157/62 117/156/62 151/159/62
f 280/160/63 268/14/63 230/161/63
f 127/109/64 119/162/64 111/110/64
f 71/163/65 228/143/65 213/142/65
f 136/164/66 201/165/66 171/166/66
f 223/118/67 221/167/67 194/168/67
f 200/169/68 209/170/68 218/171/68
f 32/172/69 13/173/69 21/174/69
f 227/175/70 251/176/70 243/177/70 81/178/70
f 275/179/71 247/180/71 193/181/71
f 275/179/72 193/181/72 219/182/72
f 107/183/73 226/184/73 109/185/73
f 347/186/74 409/187/74 414/188/74
f 338/189/75 359/190/75 342/191/75
f 221/167/76 223/118/76 237/192/76
f 283/193/77 132/194/77 363/195/77
f 264/196/78 90/1/78 234/197/78
f 142/198/79 121/38/79 207/199/79
f 228/143/80 300/200/80 214/144/80
f 241/201/81 234/197/81 170/202/81
f 152/203/82 463/29/82 361/11/82
f 53/42/83 6/41/83 70/204/83
f 205/205/84 254/206/84 249/207/84
f 183/208/85 210/209/85 259/210/85
f 122/211/86 407/212/86 88/213/86 115/214/86
f 257/215/87 186/216/87 240/217/87
f 451/218/88 286/122/88 443/124/88
f 156/219/89 184/33/89 198/220/89
f 265/221/90 237/222/90 238/223/90
f 210/224/91 262/225/91 259/226/91
f 281/227/92 261/228/92 109/229/92
f 57/88/93 136/230/93 181/231/93
f 190/232/94 109/229/94 261/228/94
f 278/233/95 197/234/95 253/235/95
f 273/236/96 176/237/96 205/238/96
f 305/239/97 285/240/97 312/241/97
f 10/242/98 461/243/98 20/244/98
f 410/245/99 126/246/99 445/247/99
f 275/248/100 438/146/100 258/249/100
f 260/250/101 217/251/101 160/252/101
f 338/253/102 342/254/102 310/97/102
f 280/255/103 230/127/103 229/256/103
f 238/223/104 274/115/104 265/221/104
f 6/41/105 12/257/105 42/258/105
f 276/259/106 243/177/106 251/176/106
f 338/260/107 393/261/107 465/262/107
f 92/62/108 143/263/108 126/264/108 94/79/108
f 443/124/109 431/265/109 11/266/109
f 129/267/110 230/161/110 268/14/110
f 50/145/111 83/49/111 428/268/111
f 409/187/112 347/186/112 365/269/112
f 399/270/113 486/271/113 430/272/113
f 288/273/114 255/274/114 248/275/114
f 281/276/115 109/277/115 226/278/115
f 476/279/116 417/280/116 488/281/116
f 315/282/117 321/283/117 407/212/117
f 290/284/118 292/285/118 222/286/118
f 292/132/119 65/131/119 275/248/119
f 297/287/120 268/14/120 280/160/120
f 297/287/121 299/15/121 268/14/121
f 228/143/122 232/288/122 300/200/122
f 329/289/123 365/269/123 325/290/123
f 116/291/124 390/292/124 132/194/124
f 368/293/125 371/294/125 457/295/125
f 291/296/126 250/297/126 266/298/126
f 211/299/127 311/81/127 15/300/127
f 311/81/128 308/80/128 301/301/128
f 362/302/129 457/303/129 257/304/129
f 474/19/130 270/305/130 73/306/130
f 318/24/131 75/307/131 316/308/131
f 174/309/132 398/310/132 175/311/132
f 98/149/133 249/312/133 199/150/133
f 11/313/134 408/314/134 4/315/134
f 407/212/135 433/316/135 420/317/135
f 235/318/136 294/5/136 323/4/136
f 323/319/137 300/200/137 232/288/137
f 102/320/138 55/321/138 34/322/138
f 147/323/139 165/324/139 333/325/139
f 147/326/140 333/327/140 139/328/140
f 327/329/141 165/104/141 162/103/141
f 333/325/142 165/324/142 185/330/142
f 330/331/143 51/332/143 322/333/143
f 371/294/144 368/293/144 410/245/144
f 416/334/145 396/335/145 395/336/145
f 408/337/146 440/338/146 1/339/146
f 29/340/147 9/341/147 20/244/147
f 219/342/148 383/343/148 290/284/148
f 477/344/149 226/184/149 107/183/149 479/345/149
f 290/284/150 295/346/150 292/285/150
f 218/347/151 349/348/151 348/349/151
f 90/1/152 141/350/152 113/2/152
f 350/351/153 351/352/153 324/353/153
f 459/354/154 24/355/154 288/273/154
f 473/356/155 1/357/155 446/358/155
f 185/330/156 190/232/156 333/325/156
f 261/228/157 333/325/157 190/232/157
f 219/342/158 222/286/158 275/359/158
f 91/360/159 7/361/159 108/362/159
f 102/320/160 34/322/160 224/363/160
f 347/364/161 317/365/161 365/366/161
f 82/367/162 79/368/162 114/369/162
f 349/370/163 324/353/163 351/352/163
f 218/347/164 362/302/164 244/371/164
f 276/259/165 251/176/165 283/193/165
f 197/372/166 146/91/166 188/373/166
f 103/374/167 339/375/167 124/76/167
f 373/376/168 478/377/168 83/378/168
f 413/379/169 331/380/169 360/381/169
f 375/26/170 441/25/170 399/382/170
f 326/22/171 318/24/171 316/308/171
f 309/383/172 374/384/172 378/385/172
f 372/386/173 319/387/173 320/388/173
f 401/389/174 413/379/174 373/376/174
f 314/390/175 312/241/175 398/310/175
f 319/387/176 372/386/176 329/289/176
f 146/391/177 260/392/177 160/393/177
f 327/329/178 154/394/178 165/104/178
f 337/395/179 347/396/179 355/397/179 356/398/179
f 96/399/180 19/400/180 345/136/180
f 229/256/181 230/127/181 155/129/181
f 165/324/182 147/323/182 161/102/182
f 106/401/183 479/402/183 107/403/183
f 457/295/184 371/294/184 383/343/184
f 85/404/185 311/81/185 211/299/185
f 389/405/186 419/406/186 352/407/186
f 366/408/187 379/409/187 394/410/187
f 64/411/188 11/266/188 4/412/188
f 386/413/189 346/414/189 151/415/189
f 346/416/190 137/93/190 151/92/190
f 151/92/191 363/417/191 390/418/191
f 173/419/192 181/420/192 220/421/192
f 311/81/193 85/404/193 321/82/193
f 25/422/194 101/423/194 31/424/194
f 344/425/195 405/426/195 391/44/195
f 423/21/196 395/427/196 74/428/196
f 487/429/197 411/430/197 404/431/197
f 128/432/198 119/162/198 127/433/198
f 310/97/199 74/428/199 406/98/199
f 313/434/200 289/435/200 370/436/200
f 305/239/201 312/241/201 314/390/201
f 318/24/202 125/23/202 120/437/202
f 216/438/203 418/439/203 231/440/203 480/441/203
f 378/385/204 374/442/204 434/443/204
f 483/444/205 448/445/205 442/446/205
f 414/447/206 355/397/206 347/396/206
f 376/448/207 399/270/207 430/272/207
f 376/448/208 430/272/208 398/449/208
f 13/450/209 4/315/209 1/451/209
f 219/182/210 193/181/210 192/452/210
f 385/48/211 402/47/211 400/453/211
f 244/454/212 240/217/212 200/169/212
f 420/455/213 315/282/213 407/212/213
f 5/456/214 252/457/214 461/243/214
f 400/453/215 387/458/215 408/337/215
f 122/459/216 433/460/216 407/461/216
f 222/286/217 219/342/217 290/284/217
f 122/211/218 428/462/218 433/463/218
f 290/284/219 435/464/219 295/346/219
f 430/272/220 271/465/220 437/466/220
f 118/27/221 117/156/221 439/467/221
f 425/468/222 450/469/222 351/352/222
f 45/470/223 41/471/223 38/472/223
f 42/258/224 70/204/224 6/41/224
f 343/6/225 327/473/225 323/4/225
f 139/328/226 157/474/226 428/462/226
f 417/280/227 448/475/227 488/281/227
f 139/328/228 333/327/228 256/476/228
f 119/153/229 439/477/229 117/154/229
f 220/478/230 454/479/230 427/480/230
f 437/466/231 253/481/231 191/482/231
f 144/483/232 110/484/232 69/485/232
f 369/486/233 353/487/233 377/488/233
f 449/489/234 447/490/234 348/349/234
f 449/489/235 348/349/235 349/348/235
f 420/491/236 425/468/236 351/352/236
f 468/492/237 470/493/237 472/494/237
f 449/489/238 354/495/238 447/490/238
f 352/496/239 419/497/239 377/498/239 353/499/239
f 467/500/240 41/501/240 444/502/240
f 231/440/241 339/375/241 103/374/241
f 3/503/242 72/148/242 2/504/242
f 362/302/243 455/505/243 457/303/243
f 392/506/244 382/507/244 366/408/244
f 278/508/245 80/509/245 38/472/245
f 66/510/246 484/511/246 166/512/246
f 93/513/247 303/514/247 305/239/247
f 252/515/248 5/7/248 284/516/248
f 65/131/249 438/146/249 275/248/249
f 45/517/250 441/25/250 439/467/250
f 430/518/251 175/311/251 398/310/251
f 454/479/252 430/272/252 437/466/252
f 86/519/253 42/520/253 12/521/253
f 278/522/254 253/235/254 271/523/254
f 200/169/255 218/524/255 244/454/255
f 415/525/256 405/526/256 456/527/256
f 103/374/257 97/528/257 480/441/257
f 458/529/258 460/530/258 293/531/258
f 444/532/259 41/471/259 439/477/259
f 453/533/260 241/201/260 170/202/260
f 23/534/261 99/535/261 24/355/261
f 454/536/262 175/311/262 430/518/262
f 116/291/263 386/537/263 390/292/263
f 245/123/264 212/538/264 429/539/264 443/124/264
f 69/540/265 471/541/265 131/542/265
f 297/287/266 302/543/266 299/15/266
f 167/544/267 44/545/267 164/546/267
f 229/256/268 155/129/268 156/219/268
f 453/533/269 412/547/269 241/201/269
f 473/356/270 436/548/270 468/549/270
f 313/434/271 358/550/271 17/551/271
f 409/187/272 487/429/272 404/431/272
f 184/33/273 156/219/273 8/34/273
f 459/354/274 23/552/274 24/355/274
f 205/238/275 206/553/275 273/236/275
f 475/554/276 140/555/276 9/9/276
f 154/556/277 327/473/277 343/6/277
f 390/418/278 386/557/278 151/92/278
f 461/243/279 10/242/279 5/456/279
f 21/558/280 97/528/280 32/559/280
f 213/560/281 72/18/281 71/17/281
f 131/542/282 144/561/282 69/540/282
f 350/562/283 324/563/283 209/170/283
f 436/548/284 435/464/284 468/549/284
f 483/444/285 262/225/285 304/564/285
f 105/565/286 106/401/286 104/566/286
f 279/567/287 105/568/287 100/569/287
f 483/570/288 304/571/288 481/572/288
f 326/22/289 325/573/289 125/23/289
f 239/574/290 474/19/290 423/21/290
f 299/15/291 302/543/291 469/575/291
f 45/576/292 486/577/292 441/578/292
f 440/338/293 408/337/293 387/458/293
f 124/76/294 97/528/294 103/374/294
f 45/579/295 38/580/295 80/581/295
f 404/431/296 177/86/296 403/582/296
f 86/519/297 95/583/297 42/520/297
f 202/121/298 204/120/298 298/32/298
f 452/584/299 416/334/299 474/585/299
f 350/562/300 209/170/300 298/586/300 301/587/300
f 302/588/301 265/589/301 187/590/301
f 25/591/302 31/592/302 34/593/302 55/594/302 60/595/302 58/596/302 52/597/302 61/598/302 59/599/302 54/600/302 56/601/302 33/602/302 30/603/302 28/604/302 26/605/302 27/606/302
f 46/607/303 48/608/303 49/609/303 51/610/303 52/597/303 47/611/303 44/612/303 40/613/303 35/614/303 27/606/303 26/605/303 14/615/303 36/616/303 39/617/303 43/618/303
f 465/262/304 12/619/304 6/620/304
f 437/466/305 191/482/305 454/479/305
f 191/482/306 427/480/306 454/479/306
f 179/621/307 169/622/307 93/513/307
f 236/623/308 246/624/308 287/625/308 293/626/308 282/627/308
f 217/251/309 260/628/309 269/629/309 296/630/309
f 6/620/310 340/631/310 465/262/310
f 35/632/311 40/633/311 130/634/311
f 183/208/312 236/635/312 262/636/312 210/209/312
f 457/295/313 455/637/313 368/293/313
f 476/638/314 462/639/314 422/640/314 417/641/314
f 315/282/315 420/642/315 350/562/315
f 270/305/316 239/574/316 272/643/316
f 216/438/317 480/441/317 470/644/317
f 128/432/318 467/500/318 444/502/318
f 225/645/319 140/555/319 142/646/319
f 356/647/320 145/90/320 131/89/320
f 396/648/321 393/96/321 406/98/321
f 17/649/322 307/54/322 335/53/322 16/650/322
f 370/436/323 447/490/323 354/495/323
f 403/582/324 173/651/324 427/652/324
f 484/511/325 66/510/325 32/172/325 134/653/325
f 269/629/326 38/69/326 296/630/326
f 84/654/327 63/655/327 75/307/327 76/656/327
f 223/657/328 196/658/328 200/169/328
f 390/292/329 363/195/329 132/194/329
f 317/659/330 137/93/330 346/416/330
f 263/660/331 255/661/331 250/297/331 291/296/331 309/662/331
f 47/663/332 52/664/332 163/665/332 267/666/332
f 133/667/333 60/668/333 55/321/333 102/320/333
f 358/550/334 307/669/334 17/551/334
f 371/294/335 410/245/335 435/464/335
f 95/583/336 78/670/336 93/671/336
f 297/672/337 280/673/337 237/674/337 265/589/337
f 233/675/338 225/676/338 207/199/338
f 121/677/339 29/678/339 24/679/339 99/680/339
f 247/180/340 275/681/340 258/682/340
f 364/683/341 374/684/341 309/662/341 291/296/341
f 393/261/342 396/335/342 452/584/342
f 250/685/343 461/243/343 252/457/343
f 3/16/344 8/107/344 155/106/344
f 376/448/345 363/417/345 151/92/345 375/139/345
f 27/686/346 35/687/346 123/688/346
f 114/369/347 132/194/347 227/175/347
f 172/689/348 96/70/348 159/690/348
f 248/84/349 255/691/349 234/692/349 241/85/349
f 221/693/350 237/674/350 280/673/350 198/694/350
f 299/15/351 469/575/351 279/13/351
f 124/695/352 134/653/352 32/172/352
f 226/696/353 477/114/353 189/116/353
f 306/55/354 382/697/354 328/698/354
f 197/699/355 269/700/355 260/392/355
f 413/379/356 401/389/356 380/701/356 332/702/356
f 172/703/357 159/704/357 424/705/357 392/506/357
f 300/706/358 87/707/358 85/708/358 214/709/358
f 86/710/359 73/711/359 78/712/359
f 256/476/360 247/180/360 258/682/360
f 381/713/361 357/714/361 378/715/361
f 115/716/362 87/717/362 162/101/362
f 436/718/363 440/338/363 295/130/363
f 170/202/364 89/126/364 336/719/364 453/533/364
f 376/720/365 276/721/365 283/193/365 363/195/365
f 27/686/366 123/688/366 168/722/366
f 34/322/367 31/723/367 224/363/367
f 169/622/368 171/724/368 201/725/368
f 233/726/369 140/555/369 225/727/369
f 408/314/370 1/451/370 4/315/370
f 431/265/371 443/124/371 429/539/371 426/728/371
f 358/729/372 360/381/372 331/380/372
f 421/730/373 401/731/373 400/453/373 397/732/373
f 438/146/374 157/733/374 258/249/374
f 15/734/375 204/735/375 7/736/375
f 276/737/376 242/738/376 243/739/376
f 141/740/377 195/741/377 357/742/377 158/743/377
f 215/140/378 203/152/378 208/744/378
f 388/745/379 364/45/379 391/44/379 405/426/379
f 400/746/380 408/314/380 11/313/380
f 86/519/381 78/670/381 95/583/381
f 375/139/382 399/270/382 376/448/382
f 263/747/383 264/748/383 234/692/383 255/691/383
f 180/749/384 212/750/384 245/751/384
f 369/486/385 339/752/385 353/487/385
f 166/512/386 451/218/386 68/753/386
f 484/754/387 369/486/387 377/488/387 422/755/387
f 414/756/388 404/431/388 403/582/388 427/652/388
f 206/553/389 205/238/389 172/703/389
f 391/44/390 334/757/390 344/758/390
f 178/759/391 246/624/391 236/623/391 277/760/391 254/761/391
f 158/743/392 216/438/392 470/644/392 143/762/392
f 68/753/393 11/266/393 64/411/393 66/510/393
f 420/491/394 433/460/394 425/468/394
f 125/23/395 325/573/395 365/366/395 317/365/395
f 138/133/396 463/29/396 152/203/396 203/152/396
f 374/684/397 364/683/397 388/763/397
f 417/280/398 419/764/398 448/475/398
f 401/389/399 421/765/399 380/701/399
f 189/766/400 274/767/400 192/452/400 193/181/400
f 85/708/401 211/768/401 91/769/401 214/709/401
f 99/151/402 23/770/402 98/149/402
f 384/771/403 389/405/403 352/407/403
f 150/51/404 153/50/404 154/556/404
f 480/441/405 97/528/405 472/772/405
f 216/438/406 381/773/406 418/439/406
f 294/5/407 150/51/407 343/6/407
f 465/262/408 340/631/408 338/260/408
f 318/24/409 120/437/409 76/656/409
f 402/47/410 50/145/410 295/130/410
f 204/120/411 15/30/411 298/32/411
f 130/774/412 123/688/412 35/687/412
f 90/1/413 89/126/413 170/202/413 234/197/413
f 469/575/414 106/401/414 105/565/414
f 100/569/415 294/775/415 296/776/415
f 25/422/416 168/722/416 101/423/416
f 372/386/417 487/429/417 365/269/417
f 386/777/418 116/778/418 114/779/418 79/780/418
f 114/369/419 116/291/419 132/194/419
f 398/310/420 174/309/420 314/390/420
f 16/650/421 22/64/421 18/63/421 17/649/421
f 282/781/422 464/782/422 481/572/422
f 152/783/423 361/784/423 471/541/423 112/785/423
f 405/426/424 415/786/424 388/745/424
f 122/211/425 115/214/425 161/787/425 139/328/425
f 285/788/426 276/721/426 376/720/426
f 194/789/427 198/694/427 184/790/427 182/791/427
f 249/207/428 98/71/428 172/689/428 205/205/428
f 178/792/429 254/206/429 205/205/429 176/793/429
f 487/429/430 409/187/430 365/269/430
f 469/794/431 105/568/431 279/567/431
f 220/795/432 427/652/432 173/651/432
f 197/372/433 188/373/433 253/796/433
f 37/68/434 296/630/434 38/69/434
f 69/540/435 112/785/435 471/541/435
f 32/559/436 97/528/436 124/76/436
f 470/493/437 468/492/437 445/797/437
f 442/798/438 448/475/438 419/764/438 389/799/438
f 18/800/439 94/801/439 289/435/439
f 382/507/440 392/506/440 424/705/440
f 428/802/441 83/803/441 478/377/441 433/460/441
f 176/793/442 212/750/442 180/749/442 178/792/442
f 449/489/443 360/804/443 358/550/443
f 253/796/444 188/373/444 191/805/444
f 412/806/445 459/83/445 241/85/445
f 207/199/446 277/807/446 233/675/446
f 477/344/447 479/345/447 302/588/447
f 7/35/448 8/34/448 2/40/448
f 400/453/449 402/47/449 387/458/449
f 308/808/450 350/562/450 301/587/450
f 336/719/451 89/126/451 335/809/451
f 145/810/452 355/397/452 148/811/452
f 352/407/453 432/812/453 384/771/453
f 11/266/454 68/753/454 443/124/454
f 385/813/455 400/814/455 401/389/455 373/376/455 83/378/455
f 157/474/456 139/328/456 256/476/456 258/682/456
f 142/198/457 475/36/457 121/38/457
f 304/571/458 262/815/458 236/816/458 282/781/458
f 171/724/459 169/622/459 179/621/459 174/309/459
f 235/817/460 228/818/460 71/17/460
f 231/440/461 103/374/461 480/441/461
f 184/790/462 7/736/462 204/735/462 182/791/462
f 192/819/463 186/216/463 257/215/463
f 25/422/464 27/686/464 168/722/464
f 462/639/465 476/638/465 464/820/465 282/627/465 293/626/465
f 456/821/466 384/771/466 432/812/466
f 438/146/467 50/145/467 157/822/467
f 113/823/468 141/740/468 158/743/468 143/762/468 92/824/468
f 62/825/469 61/598/469 52/597/469 51/610/469
f 249/826/470 254/761/470 277/760/470 207/827/470
f 388/745/471 415/786/471 456/821/471 432/812/471
f 149/95/472 148/99/472 191/805/472 188/373/472
f 272/828/473 242/738/473 303/829/473
f 447/490/474 455/505/474 348/349/474
f 129/830/475 268/831/475 279/567/475
f 274/767/476 238/832/476 240/217/476 186/216/476
f 227/175/477 283/193/477 251/176/477
f 29/37/478 475/36/478 9/833/478
f 21/558/479 472/772/479 97/528/479
f 78/670/480 272/834/480 93/671/480
f 207/827/481 121/677/481 99/680/481 199/835/481 249/826/481
f 286/836/482 451/837/482 458/838/482
f 383/343/483 257/839/483 457/295/483
f 337/395/484 317/659/484 347/396/484
f 362/302/485 348/349/485 455/505/485
f 124/76/486 339/375/486 369/77/486
f 246/840/487 180/841/487 287/842/487
f 128/432/488 444/502/488 119/162/488
f 192/452/489 274/767/489 186/216/489
f 473/843/490 468/492/490 472/494/490
f 69/75/491 110/844/491 67/73/491
f 38/472/492 269/700/492 278/508/492
f 157/822/493 50/145/493 428/268/493
f 229/256/494 156/219/494 198/220/494
f 64/411/495 4/412/495 66/510/495
f 474/585/496 73/711/496 452/584/496
f 412/547/497 453/533/497 336/719/497
f 478/377/498 373/376/498 425/468/498
f 488/281/499 483/570/499 476/279/499
f 305/239/500 179/621/500 93/513/500
f 349/348/501 209/845/501 324/846/501
f 302/543/502 479/402/502 469/575/502
f 101/847/503 224/363/503 31/723/503
f 307/54/504 331/848/504 382/697/504 306/55/504
f 360/381/505 450/469/505 373/376/505
f 211/768/506 15/734/506 7/736/506 91/769/506
f 185/849/507 165/104/507 154/394/507
f 440/338/508 387/458/508 295/130/508
f 9/341/509 10/242/509 20/244/509
f 146/91/510 149/95/510 188/373/510
f 240/217/511 238/832/511 223/657/511
f 173/651/512 403/582/512 177/86/512
f 95/583/513 93/671/513 70/850/513 42/520/513
f 420/491/514 351/352/514 350/351/514
f 218/347/515 209/845/515 349/348/515
f 73/711/516 86/710/516 466/851/516
f 481/572/517 304/571/517 282/781/517
f 179/621/518 305/239/518 314/852/518
f 257/839/519 383/343/519 192/853/519
f 466/851/520 86/710/520 12/619/520 465/262/520
f 194/168/521 182/119/521 223/118/521
f 474/19/522 239/574/522 270/305/522
f 458/838/523 287/854/523 180/855/523 245/751/523 286/836/523
f 17/551/524 18/800/524 289/435/524 313/434/524
f 337/28/525 356/856/525 361/11/525
f 232/288/526 235/857/526 323/319/526
f 460/858/527 462/639/527 293/626/527
f 472/494/528 21/859/528 473/843/528
f 288/860/529 24/679/529 29/678/529 20/861/529 461/862/529
f 435/464/530 290/284/530 371/294/530
f 106/401/531 469/575/531 479/402/531
f 136/863/532 171/864/532 181/865/532
f 319/866/533 329/867/533 316/308/533
f 395/868/534 406/98/534 74/428/534
f 250/685/535 252/457/535 284/869/535
f 387/458/536 402/47/536 295/130/536
f 169/870/537 201/871/537 136/863/537 57/872/537 70/873/537 93/874/537
f 137/93/538 317/659/538 337/395/538 463/875/538
f 303/829/539 93/874/539 272/828/539
f 274/115/540 187/876/540 265/221/540
f 202/877/541 298/586/541 209/170/541
f 455/505/542 447/490/542 370/436/542 367/878/542
f 196/658/543 202/877/543 209/170/543 200/169/543
f 280/255/544 229/256/544 198/220/544
f 237/222/545 223/879/545 238/223/545
f 144/483/546 160/252/546 217/251/546 110/484/546
f 111/880/547 208/155/547 203/881/547
f 220/421/548 175/311/548 454/536/548
f 153/50/549 104/52/549 107/882/549
f 421/765/550 397/883/550 380/701/550
f 372/884/551 485/885/551 411/430/551 487/886/551
f 484/754/552 422/755/552 460/887/552 166/888/552
f 315/282/553 350/562/553 308/808/553
f 178/889/554 180/890/554 246/891/554
f 329/867/555 325/573/555 326/22/555 316/308/555
f 376/720/556 398/892/556 312/893/556 285/788/556
f 94/801/557 368/894/557 289/435/557
f 394/410/558 176/237/558 273/236/558
f 308/808/559 321/283/559 315/282/559
f 152/895/560 112/785/560 111/880/560 203/881/560
f 84/654/561 120/437/561 346/896/561
f 192/853/562 383/343/562 219/342/562
f 132/194/563 283/193/563 227/175/563
f 362/302/564 257/897/564 244/371/564
f 358/729/565 331/380/565 307/898/565
f 450/469/566 449/899/566 351/352/566
f 435/464/567 445/900/567 468/549/567
f 271/523/568 253/235/568 437/901/568
f 212/902/569 176/237/569 429/903/569
f 303/514/570 242/904/570 285/240/570 305/239/570
f 250/685/571 284/869/571 266/905/571
f 466/851/572 452/584/572 73/711/572
f 356/647/573 355/906/573 145/90/573
f 115/907/574 88/908/574 87/909/574
f 465/262/575 452/584/575 466/851/575
f 45/579/576 80/581/576 486/910/576
f 410/245/577 368/293/577 126/246/577
f 264/196/578 195/911/578 141/350/578
f 426/912/579 379/913/579 366/914/579 380/915/579
f 426/912/580 380/915/580 397/916/580 431/917/580
f 488/281/581 448/475/581 483/918/581
f 108/147/582 213/142/582 214/144/582 91/919/582
f 276/721/583 285/788/583 242/920/583
f 378/715/584 434/921/584 418/922/584 381/713/584
f 368/894/585 367/878/585 370/436/585 289/435/585
f 455/505/586 367/878/586 368/894/586
f 290/284/587 383/343/587 371/294/587
f 394/410/588 392/506/588 366/408/588
f 343/6/589 150/51/589 154/556/589
f 464/782/590 476/279/590 483/570/590 481/572/590
f 146/391/591 160/393/591 144/561/591 131/542/591
f 475/36/592 142/198/592 140/923/592
f 406/98/593 395/868/593 396/648/593
f 295/130/594 50/145/594 65/131/594
f 248/275/595 459/354/595 288/273/595
f 366/914/596 382/697/596 332/924/596
f 206/553/597 172/703/597 392/506/597
f 427/480/598 191/482/598 148/811/598 414/447/598
f 300/925/599 323/4/599 327/926/599
f 321/283/600 88/213/600 407/212/600
f 193/181/601 247/180/601 281/927/601
f 80/581/602 271/523/602 486/910/602
f 292/285/603 275/928/603 222/286/603
f 439/477/604 41/471/604 45/470/604
f 416/20/605 395/427/605 423/21/605
f 161/787/606 147/326/606 139/328/606
f 392/506/607 273/236/607 206/553/607
f 373/376/608 413/379/608 360/381/608
f 182/119/609 202/121/609 196/117/609
f 277/807/610 259/210/610 233/675/610
f 392/506/611 394/410/611 273/236/611
f 197/699/612 278/508/612 269/700/612
f 446/358/613 1/929/613 436/548/613
f 436/548/614 473/356/614 446/358/614
f 217/930/615 296/776/615 294/775/615 235/817/615 71/17/615 110/931/615
f 37/932/616 467/933/616 128/934/616 127/935/616 67/936/616 110/931/616 71/17/616 3/16/616 155/106/616 129/830/616 279/567/616 100/569/616 296/776/616
f 126/246/617 368/293/617 94/937/617
f 465/262/618 393/261/618 452/584/618
f 33/602/619 56/601/619 54/600/619 456/527/619 405/526/619 344/938/619 334/939/619 30/603/619
f 374/684/620 388/763/620 432/940/620 434/941/620
f 346/896/621 120/437/621 125/23/621 317/365/621
f 439/477/622 119/153/622 444/532/622
f 84/942/623 79/780/623 77/943/623 63/944/623
f 331/848/624 332/924/624 382/697/624
f 433/460/625 478/377/625 425/468/625
f 379/409/626 426/945/626 429/903/626 394/410/626
f 348/349/627 362/302/627 218/347/627
f 477/344/628 302/588/628 187/590/628
f 345/946/629 19/947/629 412/547/629 336/719/629
f 450/469/630 360/381/630 449/899/630
f 231/948/631 418/922/631 434/921/631 341/949/631
f 353/487/632 339/752/632 231/948/632 341/949/632
f 68/753/633 66/510/633 166/512/633
f 378/715/634 357/714/634 195/950/634 309/951/634
f 117/156/635 118/27/635 151/159/635
f 486/910/636 271/523/636 430/952/636
f 108/147/637 2/504/637 72/148/637
f 431/917/638 397/916/638 400/746/638 11/313/638
f 193/181/639 281/927/639 189/766/639
f 291/953/640 266/905/640 334/954/640
f 313/434/641 370/436/641 354/495/641
f 96/70/642 172/689/642 98/71/642
f 194/789/643 221/693/643 198/694/643
f 70/873/644 57/872/644 53/955/644
f 243/739/645 242/738/645 272/828/645 239/956/645 423/957/645 74/958/645 310/959/645 342/960/645 359/961/645 53/955/645 485/962/645 320/963/645 319/964/645 316/965/645 75/966/645 63/967/645 77/968/645 81/969/645
f 340/43/646 53/42/646 359/190/646
f 311/81/647 301/301/647 15/300/647
f 81/178/648 82/367/648 227/175/648
f 441/25/649 118/27/649 439/467/649
f 462/970/650 460/530/650 422/971/650
f 190/972/651 185/849/651 154/394/651 153/973/651 107/183/651 109/185/651
f 341/974/652 434/941/652 432/940/652 352/496/652 353/499/652
f 220/421/653 171/166/653 174/309/653 175/311/653
f 195/950/654 264/748/654 263/747/654 309/951/654
f 260/392/655 146/391/655 197/699/655
f 171/166/656 220/421/656 181/420/656
f 88/908/657 321/82/657 85/404/657
f 58/975/658 135/976/658 163/665/658 52/664/658
f 120/437/659 84/654/659 76/656/659
f 126/264/660 143/263/660 470/493/660 445/797/660
f 261/977/661 281/927/661 247/180/661
f 452/584/662 396/335/662 416/334/662
f 314/852/663 174/309/663 179/621/663
f 167/978/664 164/979/664 267/980/664 163/981/664 135/982/664 133/983/664 102/984/664 224/985/664 101/986/664 168/987/664 123/988/664 130/989/664
f 32/172/665 66/510/665 4/412/665 13/173/665
f 78/670/666 73/990/666 270/991/666
f 445/900/667 435/464/667 410/245/667
f 40/633/668 44/545/668 167/544/668
f 277/807/669 183/208/669 259/210/669
f 87/992/670 88/908/670 85/404/670
f 2/40/671 8/34/671 3/993/671
f 380/915/672 366/914/672 332/924/672
f 164/546/673 44/545/673 47/994/673 267/995/673
f 262/225/674 483/444/674 442/446/674 389/996/674 384/997/674 456/527/674 54/600/674 59/599/674 61/598/674 482/998/674 330/999/674 51/610/674 49/609/674 48/608/674 46/1000/674 43/1001/674 39/617/674 36/616/674 14/615/674 26/605/674 28/1002/674 30/603/674 334/939/674 284/516/674 5/7/674 9/9/674 140/555/674 233/726/674 259/226/674
f 225/676/675 142/198/675 207/199/675
f 393/96/676 338/253/676 310/97/676
f 87/707/677 300/706/677 327/329/677 162/103/677
f 223/657/678 200/169/678 240/217/678
f 473/843/679 21/859/679 13/450/679 1/451/679
f 16/125/680 335/809/680 89/126/680
f 414/447/681 148/811/681 355/397/681
f 291/953/682 334/954/682 391/1003/682
f 386/777/683 79/780/683 84/942/683 346/896/683
f 449/899/684 349/370/684 351/352/684
f 358/550/685 354/495/685 449/489/685
f 354/495/686 358/550/686 313/434/686
f 167/544/687 130/634/687 40/633/687
f 173/651/688 177/86/688 57/88/688 181/231/688
f 424/705/689 345/136/689 328/135/689 382/507/689
f 306/1004/690 345/946/690 336/719/690 335/809/690
f 357/742/691 381/773/691 216/438/691 158/743/691
f 100/569/692 105/568/692 104/1005/692
f 256/476/693 333/327/693 261/977/693 247/180/693
f 458/838/694 451/837/694 166/888/694 460/887/694
f 23/72/695 459/83/695 412/806/695 19/1006/695
f 441/25/696 486/1007/696 399/382/696
f 50/145/697 402/47/697 83/49/697
f 435/464/698 436/1008/698 295/346/698
f 284/869/699 334/954/699 266/905/699
f 369/1009/700 484/511/700 134/653/700
f 413/379/701 332/702/701 331/380/701
f 78/670/702 270/991/702 272/834/702
f 277/760/703 236/623/703 183/1010/703
f 82/367/704 81/178/704 77/1011/704 79/368/704
f 345/136/705 424/705/705 159/704/705 96/399/705
f 394/410/706 429/903/706 176/237/706
f 419/497/707 417/641/707 422/640/707 377/498/707
f 208/155/708 111/880/708 119/153/708
f 250/297/709 255/661/709 288/860/709 461/862/709
f 122/211/710 139/328/710 428/462/710
f 19/1006/711 96/70/711 23/72/711
f 458/529/712 293/531/712 287/842/712
f 443/124/713 68/753/713 451/218/713
f 82/367/714 114/369/714 227/175/714
f 80/581/715 278/522/715 271/523/715
f 356/647/716 131/89/716 471/1012/716
f 472/772/717 470/644/717 480/441/717
f 414/756/718 409/187/718 404/431/718
f 318/24/719 76/656/719 75/307/719
f 411/430/720 177/86/720 404/431/720
f 359/190/721 338/189/721 340/43/721
f 297/672/722 265/589/722 302/588/722
f 425/468/723 373/376/723 450/469/723
f 1/339/724 440/338/724 436/718/724
f 232/288/725 228/143/725 235/1013/725
f 329/289/726 372/386/726 365/269/726
f 330/331/727 482/59/727 62/61/727 51/332/727
f 53/87/728 177/86/728 411/430/728 485/885/728
f 485/885/729 372/884/729 320/1014/729
f 135/976/730 58/975/730 60/1015/730 133/1016/730
f 264/196/731 141/350/731 90/1/731
f 244/454/732 257/215/732 240/217/732
f 274/115/733 477/114/733 187/876/733
f 226/696/734 189/116/734 281/1017/734
