{
	"asset":{
		"generator":"Khronos glTF Blender I/O v5.1.20",
		"version":"2.0"
	},
	"scene":0,
	"scenes":[
		{
			"name":"Scene",
			"nodes":[
				0
			]
		}
	],
	"nodes":[
		{
			"mesh":0,
			"name":"WhiteQueen_0",
			"rotation":[
				0,
				-0.7071068286895752,
				-0.7071068286895752,
				1.00153539642818e-16
			],
			"translation":[
				8.250005722045898,
				2.000000238418579,
				-2.1760663457826013e-06
			]
		}
	],
	"materials":[
		{
			"doubleSided":true,
			"name":"Root",
			"pbrMetallicRoughness":{
				"metallicFactor":0,
				"roughnessFactor":0.6000000238418579
			}
		}
	],
	"meshes":[
		{
			"name":"WhiteQueen_0",
			"primitives":[
				{
					"attributes":{
						"POSITION":0,
						"NORMAL":1,
						"TEXCOORD_0":2,
						"TANGENT":3
					},
					"indices":4,
					"material":0
				}
			]
		}
	],
	"accessors":[
		{
			"bufferView":0,
			"componentType":5126,
			"count":886,
			"max":[
				1.9999781847000122,
				1.999977946281433,
				7.607925891876221
			],
			"min":[
				-1.9999781847000122,
				-1.999977946281433,
				0
			],
			"type":"VEC3"
		},
		{
			"bufferView":1,
			"componentType":5126,
			"count":886,
			"type":"VEC3"
		},
		{
			"bufferView":2,
			"componentType":5126,
			"count":886,
			"type":"VEC2"
		},
		{
			"bufferView":3,
			"componentType":5126,
			"count":886,
			"type":"VEC4"
		},
		{
			"bufferView":4,
			"componentType":5123,
			"count":1290,
			"type":"SCALAR"
		}
	],
	"bufferViews":[
		{
			"buffer":0,
			"byteLength":10632,
			"byteOffset":0,
			"target":34962
		},
		{
			"buffer":0,
			"byteLength":10632,
			"byteOffset":10632,
			"target":34962
		},
		{
			"buffer":0,
			"byteLength":7088,
			"byteOffset":21264,
			"target":34962
		},
		{
			"buffer":0,
			"byteLength":14176,
			"byteOffset":28352,
			"target":34962
		},
		{
			"buffer":0,
			"byteLength":2580,
			"byteOffset":42528,
			"target":34963
		}
	],
	"buffers":[
		{
			"byteLength":45108,
			"uri":"queen.bin"
		}
	]
}
