{
	"asset":{
		"generator":"Khronos glTF Blender I/O v5.1.20",
		"version":"2.0"
	},
	"scene":0,
	"scenes":[
		{
			"name":"Scene",
			"nodes":[
				0
			]
		}
	],
	"nodes":[
		{
			"mesh":0,
			"name":"XArrow"
		}
	],
	"meshes":[
		{
			"name":"Cone.001",
			"primitives":[
				{
					"attributes":{
						"POSITION":0,
						"NORMAL":1,
						"TEXCOORD_0":2,
						"TANGENT":3
					},
					"indices":4
				}
			]
		}
	],
	"accessors":[
		{
			"bufferView":0,
			"componentType":5126,
			"count":520,
			"max":[
				2.200000047683716,
				0.10000000894069672,
				0.10000000149011612
			],
			"min":[
				0,
				-0.09999999403953552,
				-0.10000000149011612
			],
			"type":"VEC3"
		},
		{
			"bufferView":1,
			"componentType":5126,
			"count":520,
			"type":"VEC3"
		},
		{
			"bufferView":2,
			"componentType":5126,
			"count":520,
			"type":"VEC2"
		},
		{
			"bufferView":3,
			"componentType":5126,
			"count":520,
			"type":"VEC4"
		},
		{
			"bufferView":4,
			"componentType":5123,
			"count":1122,
			"type":"SCALAR"
		}
	],
	"bufferViews":[
		{
			"buffer":0,
			"byteLength":6240,
			"byteOffset":0,
			"target":34962
		},
		{
			"buffer":0,
			"byteLength":6240,
			"byteOffset":6240,
			"target":34962
		},
		{
			"buffer":0,
			"byteLength":4160,
			"byteOffset":12480,
			"target":34962
		},
		{
			"buffer":0,
			"byteLength":8320,
			"byteOffset":16640,
			"target":34962
		},
		{
			"buffer":0,
			"byteLength":2244,
			"byteOffset":24960,
			"target":34963
		}
	],
	"buffers":[
		{
			"byteLength":27204,
			"uri":"Arrow.bin"
		}
	]
}
