{
	"asset":{
		"generator":"Khronos glTF Blender I/O v5.1.20",
		"version":"2.0"
	},
	"scene":0,
	"scenes":[
		{
			"name":"Scene",
			"nodes":[
				0
			]
		}
	],
	"nodes":[
		{
			"mesh":0,
			"name":"WhiteKnight.001_0",
			"rotation":[
				0,
				-0.7071068286895752,
				-0.7071068286895752,
				1.001535528777078e-16
			],
			"translation":[
				-3.7499966621398926,
				2.000000238418579,
				-2.1760663457826013e-06
			]
		}
	],
	"materials":[
		{
			"doubleSided":true,
			"name":"Root",
			"pbrMetallicRoughness":{
				"metallicFactor":0,
				"roughnessFactor":0.6000000238418579
			}
		}
	],
	"meshes":[
		{
			"name":"WhiteKnight.001_0",
			"primitives":[
				{
					"attributes":{
						"POSITION":0,
						"NORMAL":1,
						"TEXCOORD_0":2,
						"TANGENT":3
					},
					"indices":4,
					"material":0
				}
			]
		}
	],
	"accessors":[
		{
			"bufferView":0,
			"componentType":5126,
			"count":875,
			"max":[
				1.9999955892562866,
				1.999995231628418,
				6.6835174560546875
			],
			"min":[
				-1.9999955892562866,
				-1.999995231628418,
				0
			],
			"type":"VEC3"
		},
		{
			"bufferView":1,
			"componentType":5126,
			"count":875,
			"type":"VEC3"
		},
		{
			"bufferView":2,
			"componentType":5126,
			"count":875,
			"type":"VEC2"
		},
		{
			"bufferView":3,
			"componentType":5126,
			"count":875,
			"type":"VEC4"
		},
		{
			"bufferView":4,
			"componentType":5123,
			"count":1251,
			"type":"SCALAR"
		}
	],
	"bufferViews":[
		{
			"buffer":0,
			"byteLength":10500,
			"byteOffset":0,
			"target":34962
		},
		{
			"buffer":0,
			"byteLength":10500,
			"byteOffset":10500,
			"target":34962
		},
		{
			"buffer":0,
			"byteLength":7000,
			"byteOffset":21000,
			"target":34962
		},
		{
			"buffer":0,
			"byteLength":14000,
			"byteOffset":28000,
			"target":34962
		},
		{
			"buffer":0,
			"byteLength":2502,
			"byteOffset":42000,
			"target":34963
		}
	],
	"buffers":[
		{
			"byteLength":44504,
			"uri":"knight.bin"
		}
	]
}
