{
	"asset":{
		"generator":"Khronos glTF Blender I/O v5.1.20",
		"version":"2.0"
	},
	"scene":0,
	"scenes":[
		{
			"name":"Scene",
			"nodes":[
				0
			]
		}
	],
	"nodes":[
		{
			"mesh":0,
			"name":"PrimaryWhitePawn.007_0",
			"rotation":[
				0,
				-0.7071068286895752,
				-0.7071068286895752,
				1.001535528777078e-16
			],
			"translation":[
				-15.75,
				2.000000238418579,
				-2.1760663457826013e-06
			]
		}
	],
	"materials":[
		{
			"doubleSided":true,
			"name":"White_Piece",
			"pbrMetallicRoughness":{
				"baseColorFactor":[
					0.8411833047866821,
					0.8411833047866821,
					0.8411833047866821,
					1
				],
				"metallicFactor":0,
				"roughnessFactor":0.6000000238418579
			}
		}
	],
	"meshes":[
		{
			"name":"PrimaryWhitePawn.007_0",
			"primitives":[
				{
					"attributes":{
						"POSITION":0,
						"NORMAL":1,
						"TEXCOORD_0":2,
						"TANGENT":3
					},
					"indices":4,
					"material":0
				}
			]
		}
	],
	"accessors":[
		{
			"bufferView":0,
			"componentType":5126,
			"count":468,
			"max":[
				1.500004768371582,
				1.500004529953003,
				4.462433815002441
			],
			"min":[
				-1.500004768371582,
				-1.500004529953003,
				0
			],
			"type":"VEC3"
		},
		{
			"bufferView":1,
			"componentType":5126,
			"count":468,
			"type":"VEC3"
		},
		{
			"bufferView":2,
			"componentType":5126,
			"count":468,
			"type":"VEC2"
		},
		{
			"bufferView":3,
			"componentType":5126,
			"count":468,
			"type":"VEC4"
		},
		{
			"bufferView":4,
			"componentType":5123,
			"count":636,
			"type":"SCALAR"
		}
	],
	"bufferViews":[
		{
			"buffer":0,
			"byteLength":5616,
			"byteOffset":0,
			"target":34962
		},
		{
			"buffer":0,
			"byteLength":5616,
			"byteOffset":5616,
			"target":34962
		},
		{
			"buffer":0,
			"byteLength":3744,
			"byteOffset":11232,
			"target":34962
		},
		{
			"buffer":0,
			"byteLength":7488,
			"byteOffset":14976,
			"target":34962
		},
		{
			"buffer":0,
			"byteLength":1272,
			"byteOffset":22464,
			"target":34963
		}
	],
	"buffers":[
		{
			"byteLength":23736,
			"uri":"pawn.bin"
		}
	]
}
